M48
; DRILL file {KiCad 8.0.3} date 2024-10-14T16:47:37+0100
; FORMAT={-:-/ absolute / inch / decimal}
; #@! TF.CreationDate,2024-10-14T16:47:37+01:00
; #@! TF.GenerationSoftware,Kicad,Pcbnew,8.0.3
; #@! TF.FileFunction,Plated,1,4,PTH
FMAT,2
INCH
; #@! TA.AperFunction,Plated,PTH,ViaDrill
T1C0.0118
; #@! TA.AperFunction,Plated,PTH,ComponentDrill
T2C0.0197
; #@! TA.AperFunction,Plated,PTH,ComponentDrill
T3C0.0236
; #@! TA.AperFunction,Plated,PTH,ComponentDrill
T4C0.0866
%
G90
G05
T1
X3.9882Y-2.9291
X4.0039Y-2.5315
X4.122Y-2.4528
X4.1457Y-2.3189
X4.1654Y-2.5315
X4.1811Y-2.9213
X4.2047Y-2.5827
X4.2126Y-2.878
X4.2835Y-2.7874
X4.2835Y-3.5472
X4.3031Y-1.9134
X4.3071Y-2.0236
X4.3268Y-3.0906
X4.3307Y-2.9921
X4.4213Y-3.5512
X4.4252Y-3.4488
X4.4291Y-2.5039
X4.4409Y-1.9134
X4.4724Y-2.5669
X4.4724Y-2.9606
X4.4734Y-2.5039
X4.5039Y-2.4961
X4.5039Y-2.5512
X4.5079Y-2.6024
X4.5079Y-2.685
X4.5079Y-2.9961
X4.5767Y-3.1748
X4.5827Y-3.2874
X4.5866Y-3.2047
X4.5866Y-3.2362
X4.6732Y-2.7323
X4.6969Y-2.7756
X4.6969Y-3.2874
X4.7276Y-2.1012
X4.7362Y-2.0709
X4.7402Y-3.3898
X4.7598Y-3.2362
X4.7677Y-3.0197
X4.7835Y-3.3937
X4.8189Y-3.374
X4.8425Y-3.2047
X4.8543Y-2.378
X4.8677Y-3.3122
X4.8778Y-3.2638
X4.905Y-2.102
X4.9094Y-2.0709
X4.925Y-3.2638
X4.9252Y-3.1732
X4.9252Y-3.3307
X4.9252Y-3.3661
X4.9843Y-3.3661
X5.0118Y-2.1024
X5.063Y-2.1024
X5.1457Y-2.0197
X5.1654Y-2.7283
X5.1772Y-3.3228
X5.2205Y-3.1496
X5.2283Y-2.3031
X5.2756Y-3.3268
X5.3583Y-3.0
X5.3858Y-2.3898
X5.4331Y-2.5079
X5.4724Y-2.6339
X5.4724Y-3.0551
X5.4803Y-2.9331
X5.7756Y-2.5157
X5.7795Y-2.8346
X5.8701Y-2.4961
X5.8819Y-2.748
X5.8898Y-2.8465
X5.8937Y-2.563
T2
X4.7559Y-3.4488
X4.7598Y-2.0197
X4.7953Y-3.4488
X4.7992Y-2.0197
X4.8346Y-3.4488
X4.8386Y-2.0197
X4.874Y-3.4488
X4.878Y-2.0197
X4.9134Y-3.4488
X4.9173Y-2.0197
X4.9528Y-3.4488
X4.9567Y-2.0197
X4.9921Y-3.4488
X4.9961Y-2.0197
X5.0315Y-3.4488
X5.0354Y-2.0197
X5.0709Y-3.4488
X5.0748Y-2.0197
X5.1102Y-3.4488
X5.1142Y-2.0197
T4
X4.0039Y-3.5472
X4.0197Y-1.9252
X5.8346Y-1.9488
X5.8425Y-3.5748
T3
G00X3.9921Y-2.5614
M15
G01X3.9685Y-2.5614
M16
G05
G00X3.9921Y-2.9016
M15
G01X3.9685Y-2.9016
M16
G05
G00X4.1665Y-2.5614
M15
G01X4.1232Y-2.5614
M16
G05
G00X4.1665Y-2.9016
M15
G01X4.1232Y-2.9016
M16
G05
M30
