%TF.GenerationSoftware,KiCad,Pcbnew,8.0.3*%
%TF.CreationDate,2024-10-14T16:47:46+01:00*%
%TF.ProjectId,nPM1300 kicad design,6e504d31-3330-4302-906b-696361642064,rev?*%
%TF.SameCoordinates,Original*%
%TF.FileFunction,Copper,L2,Inr*%
%TF.FilePolarity,Positive*%
%FSLAX46Y46*%
G04 Gerber Fmt 4.6, Leading zero omitted, Abs format (unit mm)*
G04 Created by KiCad (PCBNEW 8.0.3) date 2024-10-14 16:47:46*
%MOMM*%
%LPD*%
G01*
G04 APERTURE LIST*
%TA.AperFunction,ComponentPad*%
%ADD10C,3.800000*%
%TD*%
%TA.AperFunction,ComponentPad*%
%ADD11O,2.100000X1.000000*%
%TD*%
%TA.AperFunction,ComponentPad*%
%ADD12O,1.600000X1.000000*%
%TD*%
%TA.AperFunction,ComponentPad*%
%ADD13R,0.850000X0.850000*%
%TD*%
%TA.AperFunction,ComponentPad*%
%ADD14O,0.850000X0.850000*%
%TD*%
%TA.AperFunction,ViaPad*%
%ADD15C,0.600000*%
%TD*%
%TA.AperFunction,Conductor*%
%ADD16C,0.200000*%
%TD*%
G04 APERTURE END LIST*
D10*
%TO.N,N/C*%
%TO.C,H1*%
X101700000Y-90100000D03*
%TD*%
%TO.N,N/C*%
%TO.C,H3*%
X148400000Y-90800000D03*
%TD*%
%TO.N,N/C*%
%TO.C,H2*%
X102100000Y-48900000D03*
%TD*%
%TO.N,N/C*%
%TO.C,H4*%
X148200000Y-49500000D03*
%TD*%
D11*
%TO.N,GND*%
%TO.C,J1*%
X105280000Y-65060000D03*
D12*
X101100000Y-65060000D03*
D11*
X105280000Y-73700000D03*
D12*
X101100000Y-73700000D03*
%TD*%
D13*
%TO.N,/GPIO0*%
%TO.C,J2*%
X120800000Y-87600000D03*
%TO.N,/GPIO1*%
X121800000Y-87600000D03*
%TO.N,/GPIO2*%
X122800000Y-87600000D03*
D14*
%TO.N,/GPIO3*%
X123800000Y-87600000D03*
%TO.N,/GPIO4*%
X124800000Y-87600000D03*
%TO.N,VDDIO*%
X125800000Y-87600000D03*
%TO.N,/SCL*%
X126800000Y-87600000D03*
%TO.N,/SDA*%
X127800000Y-87600000D03*
%TO.N,/SHPHLD*%
X128800000Y-87600000D03*
%TO.N,/NTC*%
X129800000Y-87600000D03*
%TD*%
D13*
%TO.N,/LS2_OUT*%
%TO.C,J3*%
X120900000Y-51300000D03*
D14*
%TO.N,/LS2_IN*%
X121900000Y-51300000D03*
%TO.N,/LS1_OUT*%
X122900000Y-51300000D03*
%TO.N,/LS1_IN*%
X123900000Y-51300000D03*
%TO.N,+1V8*%
X124900000Y-51300000D03*
%TO.N,+3V3*%
X125900000Y-51300000D03*
%TO.N,/VBUS_OUT*%
X126900000Y-51300000D03*
%TO.N,VSYS*%
X127900000Y-51300000D03*
%TO.N,/VBAT*%
X128900000Y-51300000D03*
%TO.N,GND*%
X129900000Y-51300000D03*
%TD*%
D15*
%TO.N,VDDIO*%
X119300000Y-83500000D03*
X123640514Y-84130559D03*
X116400000Y-83500000D03*
X125100000Y-84600000D03*
%TO.N,/SDA*%
X116500000Y-82200000D03*
X125095000Y-82900000D03*
X113600000Y-65200000D03*
X113625401Y-63600000D03*
X123895000Y-82900000D03*
X120900000Y-82200000D03*
%TO.N,/SHPHLD*%
X116247016Y-80641049D03*
X125100000Y-80600000D03*
%TO.N,/GPIO0*%
X118700000Y-69400000D03*
X120400000Y-86100000D03*
X112500000Y-63600000D03*
X114500000Y-68200000D03*
%TO.N,/GPIO2*%
X121100000Y-76700000D03*
X122400000Y-85700000D03*
%TO.N,/GPIO1*%
X119300000Y-70500000D03*
X121500000Y-86200000D03*
%TO.N,/SCL*%
X114400000Y-64800000D03*
X125100000Y-85500000D03*
X114400000Y-63400000D03*
X116500000Y-81399997D03*
X126600000Y-85500000D03*
X123000000Y-81400000D03*
%TO.N,+3V3*%
X124586863Y-53391962D03*
X120080222Y-53369222D03*
%TO.N,/LS1_OUT*%
X136800000Y-60700000D03*
X123300000Y-60400000D03*
%TO.N,/VBUS_OUT*%
X128600000Y-53400000D03*
X127300000Y-53400000D03*
%TO.N,GND*%
X134000000Y-84500000D03*
X106200000Y-74200000D03*
X139000000Y-77600000D03*
X139200000Y-74500000D03*
X105800000Y-64300000D03*
X106800000Y-65600000D03*
X149100000Y-63400000D03*
X104700000Y-62300000D03*
X112800000Y-48600000D03*
X139000000Y-66900000D03*
X149700000Y-65100000D03*
X131500000Y-84400000D03*
X109900000Y-78500000D03*
X132600000Y-80000000D03*
X138000000Y-63700000D03*
X146800000Y-72000000D03*
X132800000Y-58500000D03*
X109300000Y-48600000D03*
X105300000Y-58900000D03*
X149600000Y-72300000D03*
X146700000Y-63900000D03*
X149400000Y-69800000D03*
X107000000Y-73100000D03*
X108800000Y-70800000D03*
X110000000Y-76000000D03*
X108800000Y-90100000D03*
X130700000Y-51300000D03*
X136100000Y-76200000D03*
X101300000Y-74400000D03*
X109400000Y-51400000D03*
X114500000Y-66100000D03*
X112400000Y-87600000D03*
X101700000Y-64300000D03*
X114500000Y-76100000D03*
X112300000Y-90200000D03*
%TO.N,+1V8*%
X120300000Y-52600000D03*
X124700000Y-52600000D03*
%TO.N,Net-(U1-VBUS)*%
X113600000Y-75200000D03*
X131200000Y-69300000D03*
%TD*%
D16*
%TO.N,/GPIO0*%
X120400000Y-86100000D02*
X118700000Y-84400000D01*
X118700000Y-84400000D02*
X118700000Y-69400000D01*
%TO.N,/GPIO2*%
X122400000Y-78000000D02*
X121100000Y-76700000D01*
X122400000Y-85700000D02*
X122400000Y-78000000D01*
%TO.N,/GPIO1*%
X121500000Y-77948529D02*
X119300000Y-75748529D01*
X119300000Y-75748529D02*
X119300000Y-70500000D01*
X121500000Y-86200000D02*
X121500000Y-77948529D01*
%TD*%
M02*
