%TF.GenerationSoftware,KiCad,Pcbnew,8.0.3*%
%TF.CreationDate,2024-10-14T16:47:46+01:00*%
%TF.ProjectId,nPM1300 kicad design,6e504d31-3330-4302-906b-696361642064,rev?*%
%TF.SameCoordinates,Original*%
%TF.FileFunction,Legend,Top*%
%TF.FilePolarity,Positive*%
%FSLAX46Y46*%
G04 Gerber Fmt 4.6, Leading zero omitted, Abs format (unit mm)*
G04 Created by KiCad (PCBNEW 8.0.3) date 2024-10-14 16:47:46*
%MOMM*%
%LPD*%
G01*
G04 APERTURE LIST*
%ADD10C,0.380000*%
%ADD11C,0.125000*%
%ADD12C,0.200000*%
%ADD13C,0.150000*%
%ADD14C,0.120000*%
G04 APERTURE END LIST*
D10*
X135252380Y-91647716D02*
X135252380Y-89747716D01*
X136338095Y-91647716D02*
X135523809Y-90562001D01*
X136338095Y-89747716D02*
X135252380Y-90833430D01*
X137423809Y-91647716D02*
X137242857Y-91557240D01*
X137242857Y-91557240D02*
X137152380Y-91466763D01*
X137152380Y-91466763D02*
X137061904Y-91285811D01*
X137061904Y-91285811D02*
X137061904Y-90742954D01*
X137061904Y-90742954D02*
X137152380Y-90562001D01*
X137152380Y-90562001D02*
X137242857Y-90471525D01*
X137242857Y-90471525D02*
X137423809Y-90381049D01*
X137423809Y-90381049D02*
X137695238Y-90381049D01*
X137695238Y-90381049D02*
X137876190Y-90471525D01*
X137876190Y-90471525D02*
X137966666Y-90562001D01*
X137966666Y-90562001D02*
X138057142Y-90742954D01*
X138057142Y-90742954D02*
X138057142Y-91285811D01*
X138057142Y-91285811D02*
X137966666Y-91466763D01*
X137966666Y-91466763D02*
X137876190Y-91557240D01*
X137876190Y-91557240D02*
X137695238Y-91647716D01*
X137695238Y-91647716D02*
X137423809Y-91647716D01*
X138871428Y-91647716D02*
X138871428Y-90381049D01*
X138871428Y-90742954D02*
X138961905Y-90562001D01*
X138961905Y-90562001D02*
X139052381Y-90471525D01*
X139052381Y-90471525D02*
X139233333Y-90381049D01*
X139233333Y-90381049D02*
X139414286Y-90381049D01*
X140319047Y-91647716D02*
X140138095Y-91557240D01*
X140138095Y-91557240D02*
X140047618Y-91466763D01*
X140047618Y-91466763D02*
X139957142Y-91285811D01*
X139957142Y-91285811D02*
X139957142Y-90742954D01*
X139957142Y-90742954D02*
X140047618Y-90562001D01*
X140047618Y-90562001D02*
X140138095Y-90471525D01*
X140138095Y-90471525D02*
X140319047Y-90381049D01*
X140319047Y-90381049D02*
X140590476Y-90381049D01*
X140590476Y-90381049D02*
X140771428Y-90471525D01*
X140771428Y-90471525D02*
X140861904Y-90562001D01*
X140861904Y-90562001D02*
X140952380Y-90742954D01*
X140952380Y-90742954D02*
X140952380Y-91285811D01*
X140952380Y-91285811D02*
X140861904Y-91466763D01*
X140861904Y-91466763D02*
X140771428Y-91557240D01*
X140771428Y-91557240D02*
X140590476Y-91647716D01*
X140590476Y-91647716D02*
X140319047Y-91647716D01*
X141495238Y-90381049D02*
X142219047Y-90381049D01*
X141766666Y-89747716D02*
X141766666Y-91376287D01*
X141766666Y-91376287D02*
X141857143Y-91557240D01*
X141857143Y-91557240D02*
X142038095Y-91647716D01*
X142038095Y-91647716D02*
X142219047Y-91647716D01*
X143666666Y-91647716D02*
X143666666Y-90652478D01*
X143666666Y-90652478D02*
X143576190Y-90471525D01*
X143576190Y-90471525D02*
X143395238Y-90381049D01*
X143395238Y-90381049D02*
X143033333Y-90381049D01*
X143033333Y-90381049D02*
X142852380Y-90471525D01*
X143666666Y-91557240D02*
X143485714Y-91647716D01*
X143485714Y-91647716D02*
X143033333Y-91647716D01*
X143033333Y-91647716D02*
X142852380Y-91557240D01*
X142852380Y-91557240D02*
X142761904Y-91376287D01*
X142761904Y-91376287D02*
X142761904Y-91195335D01*
X142761904Y-91195335D02*
X142852380Y-91014382D01*
X142852380Y-91014382D02*
X143033333Y-90923906D01*
X143033333Y-90923906D02*
X143485714Y-90923906D01*
X143485714Y-90923906D02*
X143666666Y-90833430D01*
D11*
X128051000Y-90282141D02*
X128074809Y-90210713D01*
X128074809Y-90210713D02*
X128074809Y-90091665D01*
X128074809Y-90091665D02*
X128051000Y-90044046D01*
X128051000Y-90044046D02*
X128027190Y-90020237D01*
X128027190Y-90020237D02*
X127979571Y-89996427D01*
X127979571Y-89996427D02*
X127931952Y-89996427D01*
X127931952Y-89996427D02*
X127884333Y-90020237D01*
X127884333Y-90020237D02*
X127860523Y-90044046D01*
X127860523Y-90044046D02*
X127836714Y-90091665D01*
X127836714Y-90091665D02*
X127812904Y-90186903D01*
X127812904Y-90186903D02*
X127789095Y-90234522D01*
X127789095Y-90234522D02*
X127765285Y-90258332D01*
X127765285Y-90258332D02*
X127717666Y-90282141D01*
X127717666Y-90282141D02*
X127670047Y-90282141D01*
X127670047Y-90282141D02*
X127622428Y-90258332D01*
X127622428Y-90258332D02*
X127598619Y-90234522D01*
X127598619Y-90234522D02*
X127574809Y-90186903D01*
X127574809Y-90186903D02*
X127574809Y-90067856D01*
X127574809Y-90067856D02*
X127598619Y-89996427D01*
X128074809Y-89782142D02*
X127574809Y-89782142D01*
X127574809Y-89782142D02*
X127574809Y-89663094D01*
X127574809Y-89663094D02*
X127598619Y-89591666D01*
X127598619Y-89591666D02*
X127646238Y-89544047D01*
X127646238Y-89544047D02*
X127693857Y-89520237D01*
X127693857Y-89520237D02*
X127789095Y-89496428D01*
X127789095Y-89496428D02*
X127860523Y-89496428D01*
X127860523Y-89496428D02*
X127955761Y-89520237D01*
X127955761Y-89520237D02*
X128003380Y-89544047D01*
X128003380Y-89544047D02*
X128051000Y-89591666D01*
X128051000Y-89591666D02*
X128074809Y-89663094D01*
X128074809Y-89663094D02*
X128074809Y-89782142D01*
X127931952Y-89305951D02*
X127931952Y-89067856D01*
X128074809Y-89353570D02*
X127574809Y-89186904D01*
X127574809Y-89186904D02*
X128074809Y-89020237D01*
X123024809Y-49776190D02*
X123024809Y-50014285D01*
X123024809Y-50014285D02*
X122524809Y-50014285D01*
X123001000Y-49633332D02*
X123024809Y-49561904D01*
X123024809Y-49561904D02*
X123024809Y-49442856D01*
X123024809Y-49442856D02*
X123001000Y-49395237D01*
X123001000Y-49395237D02*
X122977190Y-49371428D01*
X122977190Y-49371428D02*
X122929571Y-49347618D01*
X122929571Y-49347618D02*
X122881952Y-49347618D01*
X122881952Y-49347618D02*
X122834333Y-49371428D01*
X122834333Y-49371428D02*
X122810523Y-49395237D01*
X122810523Y-49395237D02*
X122786714Y-49442856D01*
X122786714Y-49442856D02*
X122762904Y-49538094D01*
X122762904Y-49538094D02*
X122739095Y-49585713D01*
X122739095Y-49585713D02*
X122715285Y-49609523D01*
X122715285Y-49609523D02*
X122667666Y-49633332D01*
X122667666Y-49633332D02*
X122620047Y-49633332D01*
X122620047Y-49633332D02*
X122572428Y-49609523D01*
X122572428Y-49609523D02*
X122548619Y-49585713D01*
X122548619Y-49585713D02*
X122524809Y-49538094D01*
X122524809Y-49538094D02*
X122524809Y-49419047D01*
X122524809Y-49419047D02*
X122548619Y-49347618D01*
X123024809Y-48871428D02*
X123024809Y-49157142D01*
X123024809Y-49014285D02*
X122524809Y-49014285D01*
X122524809Y-49014285D02*
X122596238Y-49061904D01*
X122596238Y-49061904D02*
X122643857Y-49109523D01*
X122643857Y-49109523D02*
X122667666Y-49157142D01*
X123072428Y-48776191D02*
X123072428Y-48395238D01*
X122524809Y-48180953D02*
X122524809Y-48085715D01*
X122524809Y-48085715D02*
X122548619Y-48038096D01*
X122548619Y-48038096D02*
X122596238Y-47990477D01*
X122596238Y-47990477D02*
X122691476Y-47966667D01*
X122691476Y-47966667D02*
X122858142Y-47966667D01*
X122858142Y-47966667D02*
X122953380Y-47990477D01*
X122953380Y-47990477D02*
X123001000Y-48038096D01*
X123001000Y-48038096D02*
X123024809Y-48085715D01*
X123024809Y-48085715D02*
X123024809Y-48180953D01*
X123024809Y-48180953D02*
X123001000Y-48228572D01*
X123001000Y-48228572D02*
X122953380Y-48276191D01*
X122953380Y-48276191D02*
X122858142Y-48300000D01*
X122858142Y-48300000D02*
X122691476Y-48300000D01*
X122691476Y-48300000D02*
X122596238Y-48276191D01*
X122596238Y-48276191D02*
X122548619Y-48228572D01*
X122548619Y-48228572D02*
X122524809Y-48180953D01*
X122524809Y-47752381D02*
X122929571Y-47752381D01*
X122929571Y-47752381D02*
X122977190Y-47728571D01*
X122977190Y-47728571D02*
X123001000Y-47704762D01*
X123001000Y-47704762D02*
X123024809Y-47657143D01*
X123024809Y-47657143D02*
X123024809Y-47561905D01*
X123024809Y-47561905D02*
X123001000Y-47514286D01*
X123001000Y-47514286D02*
X122977190Y-47490476D01*
X122977190Y-47490476D02*
X122929571Y-47466667D01*
X122929571Y-47466667D02*
X122524809Y-47466667D01*
X122524809Y-47299999D02*
X122524809Y-47014285D01*
X123024809Y-47157142D02*
X122524809Y-47157142D01*
X122024809Y-49767856D02*
X122024809Y-50005951D01*
X122024809Y-50005951D02*
X121524809Y-50005951D01*
X122001000Y-49624998D02*
X122024809Y-49553570D01*
X122024809Y-49553570D02*
X122024809Y-49434522D01*
X122024809Y-49434522D02*
X122001000Y-49386903D01*
X122001000Y-49386903D02*
X121977190Y-49363094D01*
X121977190Y-49363094D02*
X121929571Y-49339284D01*
X121929571Y-49339284D02*
X121881952Y-49339284D01*
X121881952Y-49339284D02*
X121834333Y-49363094D01*
X121834333Y-49363094D02*
X121810523Y-49386903D01*
X121810523Y-49386903D02*
X121786714Y-49434522D01*
X121786714Y-49434522D02*
X121762904Y-49529760D01*
X121762904Y-49529760D02*
X121739095Y-49577379D01*
X121739095Y-49577379D02*
X121715285Y-49601189D01*
X121715285Y-49601189D02*
X121667666Y-49624998D01*
X121667666Y-49624998D02*
X121620047Y-49624998D01*
X121620047Y-49624998D02*
X121572428Y-49601189D01*
X121572428Y-49601189D02*
X121548619Y-49577379D01*
X121548619Y-49577379D02*
X121524809Y-49529760D01*
X121524809Y-49529760D02*
X121524809Y-49410713D01*
X121524809Y-49410713D02*
X121548619Y-49339284D01*
X121572428Y-49148808D02*
X121548619Y-49124999D01*
X121548619Y-49124999D02*
X121524809Y-49077380D01*
X121524809Y-49077380D02*
X121524809Y-48958332D01*
X121524809Y-48958332D02*
X121548619Y-48910713D01*
X121548619Y-48910713D02*
X121572428Y-48886904D01*
X121572428Y-48886904D02*
X121620047Y-48863094D01*
X121620047Y-48863094D02*
X121667666Y-48863094D01*
X121667666Y-48863094D02*
X121739095Y-48886904D01*
X121739095Y-48886904D02*
X122024809Y-49172618D01*
X122024809Y-49172618D02*
X122024809Y-48863094D01*
X122072428Y-48767857D02*
X122072428Y-48386904D01*
X122024809Y-48267857D02*
X121524809Y-48267857D01*
X122024809Y-48029762D02*
X121524809Y-48029762D01*
X121524809Y-48029762D02*
X122024809Y-47744048D01*
X122024809Y-47744048D02*
X121524809Y-47744048D01*
X124809333Y-50005951D02*
X124809333Y-49624999D01*
X124999809Y-49815475D02*
X124618857Y-49815475D01*
X124999809Y-49124998D02*
X124999809Y-49410712D01*
X124999809Y-49267855D02*
X124499809Y-49267855D01*
X124499809Y-49267855D02*
X124571238Y-49315474D01*
X124571238Y-49315474D02*
X124618857Y-49363093D01*
X124618857Y-49363093D02*
X124642666Y-49410712D01*
X124499809Y-48982141D02*
X124999809Y-48815475D01*
X124999809Y-48815475D02*
X124499809Y-48648808D01*
X124714095Y-48410713D02*
X124690285Y-48458332D01*
X124690285Y-48458332D02*
X124666476Y-48482142D01*
X124666476Y-48482142D02*
X124618857Y-48505951D01*
X124618857Y-48505951D02*
X124595047Y-48505951D01*
X124595047Y-48505951D02*
X124547428Y-48482142D01*
X124547428Y-48482142D02*
X124523619Y-48458332D01*
X124523619Y-48458332D02*
X124499809Y-48410713D01*
X124499809Y-48410713D02*
X124499809Y-48315475D01*
X124499809Y-48315475D02*
X124523619Y-48267856D01*
X124523619Y-48267856D02*
X124547428Y-48244047D01*
X124547428Y-48244047D02*
X124595047Y-48220237D01*
X124595047Y-48220237D02*
X124618857Y-48220237D01*
X124618857Y-48220237D02*
X124666476Y-48244047D01*
X124666476Y-48244047D02*
X124690285Y-48267856D01*
X124690285Y-48267856D02*
X124714095Y-48315475D01*
X124714095Y-48315475D02*
X124714095Y-48410713D01*
X124714095Y-48410713D02*
X124737904Y-48458332D01*
X124737904Y-48458332D02*
X124761714Y-48482142D01*
X124761714Y-48482142D02*
X124809333Y-48505951D01*
X124809333Y-48505951D02*
X124904571Y-48505951D01*
X124904571Y-48505951D02*
X124952190Y-48482142D01*
X124952190Y-48482142D02*
X124976000Y-48458332D01*
X124976000Y-48458332D02*
X124999809Y-48410713D01*
X124999809Y-48410713D02*
X124999809Y-48315475D01*
X124999809Y-48315475D02*
X124976000Y-48267856D01*
X124976000Y-48267856D02*
X124952190Y-48244047D01*
X124952190Y-48244047D02*
X124904571Y-48220237D01*
X124904571Y-48220237D02*
X124809333Y-48220237D01*
X124809333Y-48220237D02*
X124761714Y-48244047D01*
X124761714Y-48244047D02*
X124737904Y-48267856D01*
X124737904Y-48267856D02*
X124714095Y-48315475D01*
X120473619Y-90688094D02*
X120449809Y-90735713D01*
X120449809Y-90735713D02*
X120449809Y-90807142D01*
X120449809Y-90807142D02*
X120473619Y-90878570D01*
X120473619Y-90878570D02*
X120521238Y-90926189D01*
X120521238Y-90926189D02*
X120568857Y-90949999D01*
X120568857Y-90949999D02*
X120664095Y-90973808D01*
X120664095Y-90973808D02*
X120735523Y-90973808D01*
X120735523Y-90973808D02*
X120830761Y-90949999D01*
X120830761Y-90949999D02*
X120878380Y-90926189D01*
X120878380Y-90926189D02*
X120926000Y-90878570D01*
X120926000Y-90878570D02*
X120949809Y-90807142D01*
X120949809Y-90807142D02*
X120949809Y-90759523D01*
X120949809Y-90759523D02*
X120926000Y-90688094D01*
X120926000Y-90688094D02*
X120902190Y-90664285D01*
X120902190Y-90664285D02*
X120735523Y-90664285D01*
X120735523Y-90664285D02*
X120735523Y-90759523D01*
X120949809Y-90449999D02*
X120449809Y-90449999D01*
X120449809Y-90449999D02*
X120449809Y-90259523D01*
X120449809Y-90259523D02*
X120473619Y-90211904D01*
X120473619Y-90211904D02*
X120497428Y-90188094D01*
X120497428Y-90188094D02*
X120545047Y-90164285D01*
X120545047Y-90164285D02*
X120616476Y-90164285D01*
X120616476Y-90164285D02*
X120664095Y-90188094D01*
X120664095Y-90188094D02*
X120687904Y-90211904D01*
X120687904Y-90211904D02*
X120711714Y-90259523D01*
X120711714Y-90259523D02*
X120711714Y-90449999D01*
X120949809Y-89949999D02*
X120449809Y-89949999D01*
X120449809Y-89616666D02*
X120449809Y-89521428D01*
X120449809Y-89521428D02*
X120473619Y-89473809D01*
X120473619Y-89473809D02*
X120521238Y-89426190D01*
X120521238Y-89426190D02*
X120616476Y-89402380D01*
X120616476Y-89402380D02*
X120783142Y-89402380D01*
X120783142Y-89402380D02*
X120878380Y-89426190D01*
X120878380Y-89426190D02*
X120926000Y-89473809D01*
X120926000Y-89473809D02*
X120949809Y-89521428D01*
X120949809Y-89521428D02*
X120949809Y-89616666D01*
X120949809Y-89616666D02*
X120926000Y-89664285D01*
X120926000Y-89664285D02*
X120878380Y-89711904D01*
X120878380Y-89711904D02*
X120783142Y-89735713D01*
X120783142Y-89735713D02*
X120616476Y-89735713D01*
X120616476Y-89735713D02*
X120521238Y-89711904D01*
X120521238Y-89711904D02*
X120473619Y-89664285D01*
X120473619Y-89664285D02*
X120449809Y-89616666D01*
X120449809Y-89092856D02*
X120449809Y-89045237D01*
X120449809Y-89045237D02*
X120473619Y-88997618D01*
X120473619Y-88997618D02*
X120497428Y-88973808D01*
X120497428Y-88973808D02*
X120545047Y-88949999D01*
X120545047Y-88949999D02*
X120640285Y-88926189D01*
X120640285Y-88926189D02*
X120759333Y-88926189D01*
X120759333Y-88926189D02*
X120854571Y-88949999D01*
X120854571Y-88949999D02*
X120902190Y-88973808D01*
X120902190Y-88973808D02*
X120926000Y-88997618D01*
X120926000Y-88997618D02*
X120949809Y-89045237D01*
X120949809Y-89045237D02*
X120949809Y-89092856D01*
X120949809Y-89092856D02*
X120926000Y-89140475D01*
X120926000Y-89140475D02*
X120902190Y-89164284D01*
X120902190Y-89164284D02*
X120854571Y-89188094D01*
X120854571Y-89188094D02*
X120759333Y-89211903D01*
X120759333Y-89211903D02*
X120640285Y-89211903D01*
X120640285Y-89211903D02*
X120545047Y-89188094D01*
X120545047Y-89188094D02*
X120497428Y-89164284D01*
X120497428Y-89164284D02*
X120473619Y-89140475D01*
X120473619Y-89140475D02*
X120449809Y-89092856D01*
X128951000Y-91644047D02*
X128974809Y-91572619D01*
X128974809Y-91572619D02*
X128974809Y-91453571D01*
X128974809Y-91453571D02*
X128951000Y-91405952D01*
X128951000Y-91405952D02*
X128927190Y-91382143D01*
X128927190Y-91382143D02*
X128879571Y-91358333D01*
X128879571Y-91358333D02*
X128831952Y-91358333D01*
X128831952Y-91358333D02*
X128784333Y-91382143D01*
X128784333Y-91382143D02*
X128760523Y-91405952D01*
X128760523Y-91405952D02*
X128736714Y-91453571D01*
X128736714Y-91453571D02*
X128712904Y-91548809D01*
X128712904Y-91548809D02*
X128689095Y-91596428D01*
X128689095Y-91596428D02*
X128665285Y-91620238D01*
X128665285Y-91620238D02*
X128617666Y-91644047D01*
X128617666Y-91644047D02*
X128570047Y-91644047D01*
X128570047Y-91644047D02*
X128522428Y-91620238D01*
X128522428Y-91620238D02*
X128498619Y-91596428D01*
X128498619Y-91596428D02*
X128474809Y-91548809D01*
X128474809Y-91548809D02*
X128474809Y-91429762D01*
X128474809Y-91429762D02*
X128498619Y-91358333D01*
X128974809Y-91144048D02*
X128474809Y-91144048D01*
X128712904Y-91144048D02*
X128712904Y-90858334D01*
X128974809Y-90858334D02*
X128474809Y-90858334D01*
X128974809Y-90620238D02*
X128474809Y-90620238D01*
X128474809Y-90620238D02*
X128474809Y-90429762D01*
X128474809Y-90429762D02*
X128498619Y-90382143D01*
X128498619Y-90382143D02*
X128522428Y-90358333D01*
X128522428Y-90358333D02*
X128570047Y-90334524D01*
X128570047Y-90334524D02*
X128641476Y-90334524D01*
X128641476Y-90334524D02*
X128689095Y-90358333D01*
X128689095Y-90358333D02*
X128712904Y-90382143D01*
X128712904Y-90382143D02*
X128736714Y-90429762D01*
X128736714Y-90429762D02*
X128736714Y-90620238D01*
X128974809Y-90120238D02*
X128474809Y-90120238D01*
X128712904Y-90120238D02*
X128712904Y-89834524D01*
X128974809Y-89834524D02*
X128474809Y-89834524D01*
X128974809Y-89358333D02*
X128974809Y-89596428D01*
X128974809Y-89596428D02*
X128474809Y-89596428D01*
X128974809Y-89191666D02*
X128474809Y-89191666D01*
X128474809Y-89191666D02*
X128474809Y-89072618D01*
X128474809Y-89072618D02*
X128498619Y-89001190D01*
X128498619Y-89001190D02*
X128546238Y-88953571D01*
X128546238Y-88953571D02*
X128593857Y-88929761D01*
X128593857Y-88929761D02*
X128689095Y-88905952D01*
X128689095Y-88905952D02*
X128760523Y-88905952D01*
X128760523Y-88905952D02*
X128855761Y-88929761D01*
X128855761Y-88929761D02*
X128903380Y-88953571D01*
X128903380Y-88953571D02*
X128951000Y-89001190D01*
X128951000Y-89001190D02*
X128974809Y-89072618D01*
X128974809Y-89072618D02*
X128974809Y-89191666D01*
X125834333Y-50055951D02*
X125834333Y-49674999D01*
X126024809Y-49865475D02*
X125643857Y-49865475D01*
X125524809Y-49484522D02*
X125524809Y-49174998D01*
X125524809Y-49174998D02*
X125715285Y-49341665D01*
X125715285Y-49341665D02*
X125715285Y-49270236D01*
X125715285Y-49270236D02*
X125739095Y-49222617D01*
X125739095Y-49222617D02*
X125762904Y-49198808D01*
X125762904Y-49198808D02*
X125810523Y-49174998D01*
X125810523Y-49174998D02*
X125929571Y-49174998D01*
X125929571Y-49174998D02*
X125977190Y-49198808D01*
X125977190Y-49198808D02*
X126001000Y-49222617D01*
X126001000Y-49222617D02*
X126024809Y-49270236D01*
X126024809Y-49270236D02*
X126024809Y-49413093D01*
X126024809Y-49413093D02*
X126001000Y-49460712D01*
X126001000Y-49460712D02*
X125977190Y-49484522D01*
X125524809Y-49032141D02*
X126024809Y-48865475D01*
X126024809Y-48865475D02*
X125524809Y-48698808D01*
X125524809Y-48579761D02*
X125524809Y-48270237D01*
X125524809Y-48270237D02*
X125715285Y-48436904D01*
X125715285Y-48436904D02*
X125715285Y-48365475D01*
X125715285Y-48365475D02*
X125739095Y-48317856D01*
X125739095Y-48317856D02*
X125762904Y-48294047D01*
X125762904Y-48294047D02*
X125810523Y-48270237D01*
X125810523Y-48270237D02*
X125929571Y-48270237D01*
X125929571Y-48270237D02*
X125977190Y-48294047D01*
X125977190Y-48294047D02*
X126001000Y-48317856D01*
X126001000Y-48317856D02*
X126024809Y-48365475D01*
X126024809Y-48365475D02*
X126024809Y-48508332D01*
X126024809Y-48508332D02*
X126001000Y-48555951D01*
X126001000Y-48555951D02*
X125977190Y-48579761D01*
X126574809Y-50044046D02*
X127074809Y-49877380D01*
X127074809Y-49877380D02*
X126574809Y-49710713D01*
X126812904Y-49377380D02*
X126836714Y-49305952D01*
X126836714Y-49305952D02*
X126860523Y-49282142D01*
X126860523Y-49282142D02*
X126908142Y-49258333D01*
X126908142Y-49258333D02*
X126979571Y-49258333D01*
X126979571Y-49258333D02*
X127027190Y-49282142D01*
X127027190Y-49282142D02*
X127051000Y-49305952D01*
X127051000Y-49305952D02*
X127074809Y-49353571D01*
X127074809Y-49353571D02*
X127074809Y-49544047D01*
X127074809Y-49544047D02*
X126574809Y-49544047D01*
X126574809Y-49544047D02*
X126574809Y-49377380D01*
X126574809Y-49377380D02*
X126598619Y-49329761D01*
X126598619Y-49329761D02*
X126622428Y-49305952D01*
X126622428Y-49305952D02*
X126670047Y-49282142D01*
X126670047Y-49282142D02*
X126717666Y-49282142D01*
X126717666Y-49282142D02*
X126765285Y-49305952D01*
X126765285Y-49305952D02*
X126789095Y-49329761D01*
X126789095Y-49329761D02*
X126812904Y-49377380D01*
X126812904Y-49377380D02*
X126812904Y-49544047D01*
X126574809Y-49044047D02*
X126979571Y-49044047D01*
X126979571Y-49044047D02*
X127027190Y-49020237D01*
X127027190Y-49020237D02*
X127051000Y-48996428D01*
X127051000Y-48996428D02*
X127074809Y-48948809D01*
X127074809Y-48948809D02*
X127074809Y-48853571D01*
X127074809Y-48853571D02*
X127051000Y-48805952D01*
X127051000Y-48805952D02*
X127027190Y-48782142D01*
X127027190Y-48782142D02*
X126979571Y-48758333D01*
X126979571Y-48758333D02*
X126574809Y-48758333D01*
X127051000Y-48544046D02*
X127074809Y-48472618D01*
X127074809Y-48472618D02*
X127074809Y-48353570D01*
X127074809Y-48353570D02*
X127051000Y-48305951D01*
X127051000Y-48305951D02*
X127027190Y-48282142D01*
X127027190Y-48282142D02*
X126979571Y-48258332D01*
X126979571Y-48258332D02*
X126931952Y-48258332D01*
X126931952Y-48258332D02*
X126884333Y-48282142D01*
X126884333Y-48282142D02*
X126860523Y-48305951D01*
X126860523Y-48305951D02*
X126836714Y-48353570D01*
X126836714Y-48353570D02*
X126812904Y-48448808D01*
X126812904Y-48448808D02*
X126789095Y-48496427D01*
X126789095Y-48496427D02*
X126765285Y-48520237D01*
X126765285Y-48520237D02*
X126717666Y-48544046D01*
X126717666Y-48544046D02*
X126670047Y-48544046D01*
X126670047Y-48544046D02*
X126622428Y-48520237D01*
X126622428Y-48520237D02*
X126598619Y-48496427D01*
X126598619Y-48496427D02*
X126574809Y-48448808D01*
X126574809Y-48448808D02*
X126574809Y-48329761D01*
X126574809Y-48329761D02*
X126598619Y-48258332D01*
X127122428Y-48163095D02*
X127122428Y-47782142D01*
X126574809Y-47567857D02*
X126574809Y-47472619D01*
X126574809Y-47472619D02*
X126598619Y-47425000D01*
X126598619Y-47425000D02*
X126646238Y-47377381D01*
X126646238Y-47377381D02*
X126741476Y-47353571D01*
X126741476Y-47353571D02*
X126908142Y-47353571D01*
X126908142Y-47353571D02*
X127003380Y-47377381D01*
X127003380Y-47377381D02*
X127051000Y-47425000D01*
X127051000Y-47425000D02*
X127074809Y-47472619D01*
X127074809Y-47472619D02*
X127074809Y-47567857D01*
X127074809Y-47567857D02*
X127051000Y-47615476D01*
X127051000Y-47615476D02*
X127003380Y-47663095D01*
X127003380Y-47663095D02*
X126908142Y-47686904D01*
X126908142Y-47686904D02*
X126741476Y-47686904D01*
X126741476Y-47686904D02*
X126646238Y-47663095D01*
X126646238Y-47663095D02*
X126598619Y-47615476D01*
X126598619Y-47615476D02*
X126574809Y-47567857D01*
X125574809Y-91022618D02*
X126074809Y-90855952D01*
X126074809Y-90855952D02*
X125574809Y-90689285D01*
X126074809Y-90522619D02*
X125574809Y-90522619D01*
X125574809Y-90522619D02*
X125574809Y-90403571D01*
X125574809Y-90403571D02*
X125598619Y-90332143D01*
X125598619Y-90332143D02*
X125646238Y-90284524D01*
X125646238Y-90284524D02*
X125693857Y-90260714D01*
X125693857Y-90260714D02*
X125789095Y-90236905D01*
X125789095Y-90236905D02*
X125860523Y-90236905D01*
X125860523Y-90236905D02*
X125955761Y-90260714D01*
X125955761Y-90260714D02*
X126003380Y-90284524D01*
X126003380Y-90284524D02*
X126051000Y-90332143D01*
X126051000Y-90332143D02*
X126074809Y-90403571D01*
X126074809Y-90403571D02*
X126074809Y-90522619D01*
X126074809Y-90022619D02*
X125574809Y-90022619D01*
X125574809Y-90022619D02*
X125574809Y-89903571D01*
X125574809Y-89903571D02*
X125598619Y-89832143D01*
X125598619Y-89832143D02*
X125646238Y-89784524D01*
X125646238Y-89784524D02*
X125693857Y-89760714D01*
X125693857Y-89760714D02*
X125789095Y-89736905D01*
X125789095Y-89736905D02*
X125860523Y-89736905D01*
X125860523Y-89736905D02*
X125955761Y-89760714D01*
X125955761Y-89760714D02*
X126003380Y-89784524D01*
X126003380Y-89784524D02*
X126051000Y-89832143D01*
X126051000Y-89832143D02*
X126074809Y-89903571D01*
X126074809Y-89903571D02*
X126074809Y-90022619D01*
X126074809Y-89522619D02*
X125574809Y-89522619D01*
X125574809Y-89189286D02*
X125574809Y-89094048D01*
X125574809Y-89094048D02*
X125598619Y-89046429D01*
X125598619Y-89046429D02*
X125646238Y-88998810D01*
X125646238Y-88998810D02*
X125741476Y-88975000D01*
X125741476Y-88975000D02*
X125908142Y-88975000D01*
X125908142Y-88975000D02*
X126003380Y-88998810D01*
X126003380Y-88998810D02*
X126051000Y-89046429D01*
X126051000Y-89046429D02*
X126074809Y-89094048D01*
X126074809Y-89094048D02*
X126074809Y-89189286D01*
X126074809Y-89189286D02*
X126051000Y-89236905D01*
X126051000Y-89236905D02*
X126003380Y-89284524D01*
X126003380Y-89284524D02*
X125908142Y-89308333D01*
X125908142Y-89308333D02*
X125741476Y-89308333D01*
X125741476Y-89308333D02*
X125646238Y-89284524D01*
X125646238Y-89284524D02*
X125598619Y-89236905D01*
X125598619Y-89236905D02*
X125574809Y-89189286D01*
X129748619Y-49555952D02*
X129724809Y-49603571D01*
X129724809Y-49603571D02*
X129724809Y-49675000D01*
X129724809Y-49675000D02*
X129748619Y-49746428D01*
X129748619Y-49746428D02*
X129796238Y-49794047D01*
X129796238Y-49794047D02*
X129843857Y-49817857D01*
X129843857Y-49817857D02*
X129939095Y-49841666D01*
X129939095Y-49841666D02*
X130010523Y-49841666D01*
X130010523Y-49841666D02*
X130105761Y-49817857D01*
X130105761Y-49817857D02*
X130153380Y-49794047D01*
X130153380Y-49794047D02*
X130201000Y-49746428D01*
X130201000Y-49746428D02*
X130224809Y-49675000D01*
X130224809Y-49675000D02*
X130224809Y-49627381D01*
X130224809Y-49627381D02*
X130201000Y-49555952D01*
X130201000Y-49555952D02*
X130177190Y-49532143D01*
X130177190Y-49532143D02*
X130010523Y-49532143D01*
X130010523Y-49532143D02*
X130010523Y-49627381D01*
X130224809Y-49317857D02*
X129724809Y-49317857D01*
X129724809Y-49317857D02*
X130224809Y-49032143D01*
X130224809Y-49032143D02*
X129724809Y-49032143D01*
X130224809Y-48794047D02*
X129724809Y-48794047D01*
X129724809Y-48794047D02*
X129724809Y-48674999D01*
X129724809Y-48674999D02*
X129748619Y-48603571D01*
X129748619Y-48603571D02*
X129796238Y-48555952D01*
X129796238Y-48555952D02*
X129843857Y-48532142D01*
X129843857Y-48532142D02*
X129939095Y-48508333D01*
X129939095Y-48508333D02*
X130010523Y-48508333D01*
X130010523Y-48508333D02*
X130105761Y-48532142D01*
X130105761Y-48532142D02*
X130153380Y-48555952D01*
X130153380Y-48555952D02*
X130201000Y-48603571D01*
X130201000Y-48603571D02*
X130224809Y-48674999D01*
X130224809Y-48674999D02*
X130224809Y-48794047D01*
X127001000Y-90295237D02*
X127024809Y-90223809D01*
X127024809Y-90223809D02*
X127024809Y-90104761D01*
X127024809Y-90104761D02*
X127001000Y-90057142D01*
X127001000Y-90057142D02*
X126977190Y-90033333D01*
X126977190Y-90033333D02*
X126929571Y-90009523D01*
X126929571Y-90009523D02*
X126881952Y-90009523D01*
X126881952Y-90009523D02*
X126834333Y-90033333D01*
X126834333Y-90033333D02*
X126810523Y-90057142D01*
X126810523Y-90057142D02*
X126786714Y-90104761D01*
X126786714Y-90104761D02*
X126762904Y-90199999D01*
X126762904Y-90199999D02*
X126739095Y-90247618D01*
X126739095Y-90247618D02*
X126715285Y-90271428D01*
X126715285Y-90271428D02*
X126667666Y-90295237D01*
X126667666Y-90295237D02*
X126620047Y-90295237D01*
X126620047Y-90295237D02*
X126572428Y-90271428D01*
X126572428Y-90271428D02*
X126548619Y-90247618D01*
X126548619Y-90247618D02*
X126524809Y-90199999D01*
X126524809Y-90199999D02*
X126524809Y-90080952D01*
X126524809Y-90080952D02*
X126548619Y-90009523D01*
X126977190Y-89509524D02*
X127001000Y-89533333D01*
X127001000Y-89533333D02*
X127024809Y-89604762D01*
X127024809Y-89604762D02*
X127024809Y-89652381D01*
X127024809Y-89652381D02*
X127001000Y-89723809D01*
X127001000Y-89723809D02*
X126953380Y-89771428D01*
X126953380Y-89771428D02*
X126905761Y-89795238D01*
X126905761Y-89795238D02*
X126810523Y-89819047D01*
X126810523Y-89819047D02*
X126739095Y-89819047D01*
X126739095Y-89819047D02*
X126643857Y-89795238D01*
X126643857Y-89795238D02*
X126596238Y-89771428D01*
X126596238Y-89771428D02*
X126548619Y-89723809D01*
X126548619Y-89723809D02*
X126524809Y-89652381D01*
X126524809Y-89652381D02*
X126524809Y-89604762D01*
X126524809Y-89604762D02*
X126548619Y-89533333D01*
X126548619Y-89533333D02*
X126572428Y-89509524D01*
X127024809Y-89057143D02*
X127024809Y-89295238D01*
X127024809Y-89295238D02*
X126524809Y-89295238D01*
X121448619Y-90713094D02*
X121424809Y-90760713D01*
X121424809Y-90760713D02*
X121424809Y-90832142D01*
X121424809Y-90832142D02*
X121448619Y-90903570D01*
X121448619Y-90903570D02*
X121496238Y-90951189D01*
X121496238Y-90951189D02*
X121543857Y-90974999D01*
X121543857Y-90974999D02*
X121639095Y-90998808D01*
X121639095Y-90998808D02*
X121710523Y-90998808D01*
X121710523Y-90998808D02*
X121805761Y-90974999D01*
X121805761Y-90974999D02*
X121853380Y-90951189D01*
X121853380Y-90951189D02*
X121901000Y-90903570D01*
X121901000Y-90903570D02*
X121924809Y-90832142D01*
X121924809Y-90832142D02*
X121924809Y-90784523D01*
X121924809Y-90784523D02*
X121901000Y-90713094D01*
X121901000Y-90713094D02*
X121877190Y-90689285D01*
X121877190Y-90689285D02*
X121710523Y-90689285D01*
X121710523Y-90689285D02*
X121710523Y-90784523D01*
X121924809Y-90474999D02*
X121424809Y-90474999D01*
X121424809Y-90474999D02*
X121424809Y-90284523D01*
X121424809Y-90284523D02*
X121448619Y-90236904D01*
X121448619Y-90236904D02*
X121472428Y-90213094D01*
X121472428Y-90213094D02*
X121520047Y-90189285D01*
X121520047Y-90189285D02*
X121591476Y-90189285D01*
X121591476Y-90189285D02*
X121639095Y-90213094D01*
X121639095Y-90213094D02*
X121662904Y-90236904D01*
X121662904Y-90236904D02*
X121686714Y-90284523D01*
X121686714Y-90284523D02*
X121686714Y-90474999D01*
X121924809Y-89974999D02*
X121424809Y-89974999D01*
X121424809Y-89641666D02*
X121424809Y-89546428D01*
X121424809Y-89546428D02*
X121448619Y-89498809D01*
X121448619Y-89498809D02*
X121496238Y-89451190D01*
X121496238Y-89451190D02*
X121591476Y-89427380D01*
X121591476Y-89427380D02*
X121758142Y-89427380D01*
X121758142Y-89427380D02*
X121853380Y-89451190D01*
X121853380Y-89451190D02*
X121901000Y-89498809D01*
X121901000Y-89498809D02*
X121924809Y-89546428D01*
X121924809Y-89546428D02*
X121924809Y-89641666D01*
X121924809Y-89641666D02*
X121901000Y-89689285D01*
X121901000Y-89689285D02*
X121853380Y-89736904D01*
X121853380Y-89736904D02*
X121758142Y-89760713D01*
X121758142Y-89760713D02*
X121591476Y-89760713D01*
X121591476Y-89760713D02*
X121496238Y-89736904D01*
X121496238Y-89736904D02*
X121448619Y-89689285D01*
X121448619Y-89689285D02*
X121424809Y-89641666D01*
X121924809Y-88951189D02*
X121924809Y-89236903D01*
X121924809Y-89094046D02*
X121424809Y-89094046D01*
X121424809Y-89094046D02*
X121496238Y-89141665D01*
X121496238Y-89141665D02*
X121543857Y-89189284D01*
X121543857Y-89189284D02*
X121567666Y-89236903D01*
X129974809Y-90333333D02*
X129474809Y-90333333D01*
X129474809Y-90333333D02*
X129974809Y-90047619D01*
X129974809Y-90047619D02*
X129474809Y-90047619D01*
X129474809Y-89880951D02*
X129474809Y-89595237D01*
X129974809Y-89738094D02*
X129474809Y-89738094D01*
X129927190Y-89142857D02*
X129951000Y-89166666D01*
X129951000Y-89166666D02*
X129974809Y-89238095D01*
X129974809Y-89238095D02*
X129974809Y-89285714D01*
X129974809Y-89285714D02*
X129951000Y-89357142D01*
X129951000Y-89357142D02*
X129903380Y-89404761D01*
X129903380Y-89404761D02*
X129855761Y-89428571D01*
X129855761Y-89428571D02*
X129760523Y-89452380D01*
X129760523Y-89452380D02*
X129689095Y-89452380D01*
X129689095Y-89452380D02*
X129593857Y-89428571D01*
X129593857Y-89428571D02*
X129546238Y-89404761D01*
X129546238Y-89404761D02*
X129498619Y-89357142D01*
X129498619Y-89357142D02*
X129474809Y-89285714D01*
X129474809Y-89285714D02*
X129474809Y-89238095D01*
X129474809Y-89238095D02*
X129498619Y-89166666D01*
X129498619Y-89166666D02*
X129522428Y-89142857D01*
X120974809Y-49726190D02*
X120974809Y-49964285D01*
X120974809Y-49964285D02*
X120474809Y-49964285D01*
X120951000Y-49583332D02*
X120974809Y-49511904D01*
X120974809Y-49511904D02*
X120974809Y-49392856D01*
X120974809Y-49392856D02*
X120951000Y-49345237D01*
X120951000Y-49345237D02*
X120927190Y-49321428D01*
X120927190Y-49321428D02*
X120879571Y-49297618D01*
X120879571Y-49297618D02*
X120831952Y-49297618D01*
X120831952Y-49297618D02*
X120784333Y-49321428D01*
X120784333Y-49321428D02*
X120760523Y-49345237D01*
X120760523Y-49345237D02*
X120736714Y-49392856D01*
X120736714Y-49392856D02*
X120712904Y-49488094D01*
X120712904Y-49488094D02*
X120689095Y-49535713D01*
X120689095Y-49535713D02*
X120665285Y-49559523D01*
X120665285Y-49559523D02*
X120617666Y-49583332D01*
X120617666Y-49583332D02*
X120570047Y-49583332D01*
X120570047Y-49583332D02*
X120522428Y-49559523D01*
X120522428Y-49559523D02*
X120498619Y-49535713D01*
X120498619Y-49535713D02*
X120474809Y-49488094D01*
X120474809Y-49488094D02*
X120474809Y-49369047D01*
X120474809Y-49369047D02*
X120498619Y-49297618D01*
X120522428Y-49107142D02*
X120498619Y-49083333D01*
X120498619Y-49083333D02*
X120474809Y-49035714D01*
X120474809Y-49035714D02*
X120474809Y-48916666D01*
X120474809Y-48916666D02*
X120498619Y-48869047D01*
X120498619Y-48869047D02*
X120522428Y-48845238D01*
X120522428Y-48845238D02*
X120570047Y-48821428D01*
X120570047Y-48821428D02*
X120617666Y-48821428D01*
X120617666Y-48821428D02*
X120689095Y-48845238D01*
X120689095Y-48845238D02*
X120974809Y-49130952D01*
X120974809Y-49130952D02*
X120974809Y-48821428D01*
X121022428Y-48726191D02*
X121022428Y-48345238D01*
X120474809Y-48130953D02*
X120474809Y-48035715D01*
X120474809Y-48035715D02*
X120498619Y-47988096D01*
X120498619Y-47988096D02*
X120546238Y-47940477D01*
X120546238Y-47940477D02*
X120641476Y-47916667D01*
X120641476Y-47916667D02*
X120808142Y-47916667D01*
X120808142Y-47916667D02*
X120903380Y-47940477D01*
X120903380Y-47940477D02*
X120951000Y-47988096D01*
X120951000Y-47988096D02*
X120974809Y-48035715D01*
X120974809Y-48035715D02*
X120974809Y-48130953D01*
X120974809Y-48130953D02*
X120951000Y-48178572D01*
X120951000Y-48178572D02*
X120903380Y-48226191D01*
X120903380Y-48226191D02*
X120808142Y-48250000D01*
X120808142Y-48250000D02*
X120641476Y-48250000D01*
X120641476Y-48250000D02*
X120546238Y-48226191D01*
X120546238Y-48226191D02*
X120498619Y-48178572D01*
X120498619Y-48178572D02*
X120474809Y-48130953D01*
X120474809Y-47702381D02*
X120879571Y-47702381D01*
X120879571Y-47702381D02*
X120927190Y-47678571D01*
X120927190Y-47678571D02*
X120951000Y-47654762D01*
X120951000Y-47654762D02*
X120974809Y-47607143D01*
X120974809Y-47607143D02*
X120974809Y-47511905D01*
X120974809Y-47511905D02*
X120951000Y-47464286D01*
X120951000Y-47464286D02*
X120927190Y-47440476D01*
X120927190Y-47440476D02*
X120879571Y-47416667D01*
X120879571Y-47416667D02*
X120474809Y-47416667D01*
X120474809Y-47249999D02*
X120474809Y-46964285D01*
X120974809Y-47107142D02*
X120474809Y-47107142D01*
D12*
X135388720Y-50176196D02*
X135388720Y-48676196D01*
X136103006Y-49176196D02*
X136103006Y-50176196D01*
X136103006Y-49319053D02*
X136174435Y-49247625D01*
X136174435Y-49247625D02*
X136317292Y-49176196D01*
X136317292Y-49176196D02*
X136531578Y-49176196D01*
X136531578Y-49176196D02*
X136674435Y-49247625D01*
X136674435Y-49247625D02*
X136745864Y-49390482D01*
X136745864Y-49390482D02*
X136745864Y-50176196D01*
X137245864Y-49176196D02*
X137817292Y-49176196D01*
X137460149Y-48676196D02*
X137460149Y-49961910D01*
X137460149Y-49961910D02*
X137531578Y-50104768D01*
X137531578Y-50104768D02*
X137674435Y-50176196D01*
X137674435Y-50176196D02*
X137817292Y-50176196D01*
X138888721Y-50104768D02*
X138745864Y-50176196D01*
X138745864Y-50176196D02*
X138460150Y-50176196D01*
X138460150Y-50176196D02*
X138317292Y-50104768D01*
X138317292Y-50104768D02*
X138245864Y-49961910D01*
X138245864Y-49961910D02*
X138245864Y-49390482D01*
X138245864Y-49390482D02*
X138317292Y-49247625D01*
X138317292Y-49247625D02*
X138460150Y-49176196D01*
X138460150Y-49176196D02*
X138745864Y-49176196D01*
X138745864Y-49176196D02*
X138888721Y-49247625D01*
X138888721Y-49247625D02*
X138960150Y-49390482D01*
X138960150Y-49390482D02*
X138960150Y-49533339D01*
X138960150Y-49533339D02*
X138245864Y-49676196D01*
X140245864Y-49176196D02*
X140245864Y-50390482D01*
X140245864Y-50390482D02*
X140174435Y-50533339D01*
X140174435Y-50533339D02*
X140103006Y-50604768D01*
X140103006Y-50604768D02*
X139960149Y-50676196D01*
X139960149Y-50676196D02*
X139745864Y-50676196D01*
X139745864Y-50676196D02*
X139603006Y-50604768D01*
X140245864Y-50104768D02*
X140103006Y-50176196D01*
X140103006Y-50176196D02*
X139817292Y-50176196D01*
X139817292Y-50176196D02*
X139674435Y-50104768D01*
X139674435Y-50104768D02*
X139603006Y-50033339D01*
X139603006Y-50033339D02*
X139531578Y-49890482D01*
X139531578Y-49890482D02*
X139531578Y-49461910D01*
X139531578Y-49461910D02*
X139603006Y-49319053D01*
X139603006Y-49319053D02*
X139674435Y-49247625D01*
X139674435Y-49247625D02*
X139817292Y-49176196D01*
X139817292Y-49176196D02*
X140103006Y-49176196D01*
X140103006Y-49176196D02*
X140245864Y-49247625D01*
X140960149Y-50176196D02*
X140960149Y-49176196D01*
X140960149Y-49461910D02*
X141031578Y-49319053D01*
X141031578Y-49319053D02*
X141103007Y-49247625D01*
X141103007Y-49247625D02*
X141245864Y-49176196D01*
X141245864Y-49176196D02*
X141388721Y-49176196D01*
X142531578Y-50176196D02*
X142531578Y-49390482D01*
X142531578Y-49390482D02*
X142460149Y-49247625D01*
X142460149Y-49247625D02*
X142317292Y-49176196D01*
X142317292Y-49176196D02*
X142031578Y-49176196D01*
X142031578Y-49176196D02*
X141888720Y-49247625D01*
X142531578Y-50104768D02*
X142388720Y-50176196D01*
X142388720Y-50176196D02*
X142031578Y-50176196D01*
X142031578Y-50176196D02*
X141888720Y-50104768D01*
X141888720Y-50104768D02*
X141817292Y-49961910D01*
X141817292Y-49961910D02*
X141817292Y-49819053D01*
X141817292Y-49819053D02*
X141888720Y-49676196D01*
X141888720Y-49676196D02*
X142031578Y-49604768D01*
X142031578Y-49604768D02*
X142388720Y-49604768D01*
X142388720Y-49604768D02*
X142531578Y-49533339D01*
X143460149Y-50176196D02*
X143317292Y-50104768D01*
X143317292Y-50104768D02*
X143245863Y-49961910D01*
X143245863Y-49961910D02*
X143245863Y-48676196D01*
X135317292Y-52519684D02*
X135531578Y-52591112D01*
X135531578Y-52591112D02*
X135888720Y-52591112D01*
X135888720Y-52591112D02*
X136031578Y-52519684D01*
X136031578Y-52519684D02*
X136103006Y-52448255D01*
X136103006Y-52448255D02*
X136174435Y-52305398D01*
X136174435Y-52305398D02*
X136174435Y-52162541D01*
X136174435Y-52162541D02*
X136103006Y-52019684D01*
X136103006Y-52019684D02*
X136031578Y-51948255D01*
X136031578Y-51948255D02*
X135888720Y-51876826D01*
X135888720Y-51876826D02*
X135603006Y-51805398D01*
X135603006Y-51805398D02*
X135460149Y-51733969D01*
X135460149Y-51733969D02*
X135388720Y-51662541D01*
X135388720Y-51662541D02*
X135317292Y-51519684D01*
X135317292Y-51519684D02*
X135317292Y-51376826D01*
X135317292Y-51376826D02*
X135388720Y-51233969D01*
X135388720Y-51233969D02*
X135460149Y-51162541D01*
X135460149Y-51162541D02*
X135603006Y-51091112D01*
X135603006Y-51091112D02*
X135960149Y-51091112D01*
X135960149Y-51091112D02*
X136174435Y-51162541D01*
X136674434Y-51591112D02*
X137031577Y-52591112D01*
X137388720Y-51591112D02*
X137031577Y-52591112D01*
X137031577Y-52591112D02*
X136888720Y-52948255D01*
X136888720Y-52948255D02*
X136817291Y-53019684D01*
X136817291Y-53019684D02*
X136674434Y-53091112D01*
X137888720Y-52519684D02*
X138031577Y-52591112D01*
X138031577Y-52591112D02*
X138317291Y-52591112D01*
X138317291Y-52591112D02*
X138460148Y-52519684D01*
X138460148Y-52519684D02*
X138531577Y-52376826D01*
X138531577Y-52376826D02*
X138531577Y-52305398D01*
X138531577Y-52305398D02*
X138460148Y-52162541D01*
X138460148Y-52162541D02*
X138317291Y-52091112D01*
X138317291Y-52091112D02*
X138103006Y-52091112D01*
X138103006Y-52091112D02*
X137960148Y-52019684D01*
X137960148Y-52019684D02*
X137888720Y-51876826D01*
X137888720Y-51876826D02*
X137888720Y-51805398D01*
X137888720Y-51805398D02*
X137960148Y-51662541D01*
X137960148Y-51662541D02*
X138103006Y-51591112D01*
X138103006Y-51591112D02*
X138317291Y-51591112D01*
X138317291Y-51591112D02*
X138460148Y-51662541D01*
X138960149Y-51591112D02*
X139531577Y-51591112D01*
X139174434Y-51091112D02*
X139174434Y-52376826D01*
X139174434Y-52376826D02*
X139245863Y-52519684D01*
X139245863Y-52519684D02*
X139388720Y-52591112D01*
X139388720Y-52591112D02*
X139531577Y-52591112D01*
X140603006Y-52519684D02*
X140460149Y-52591112D01*
X140460149Y-52591112D02*
X140174435Y-52591112D01*
X140174435Y-52591112D02*
X140031577Y-52519684D01*
X140031577Y-52519684D02*
X139960149Y-52376826D01*
X139960149Y-52376826D02*
X139960149Y-51805398D01*
X139960149Y-51805398D02*
X140031577Y-51662541D01*
X140031577Y-51662541D02*
X140174435Y-51591112D01*
X140174435Y-51591112D02*
X140460149Y-51591112D01*
X140460149Y-51591112D02*
X140603006Y-51662541D01*
X140603006Y-51662541D02*
X140674435Y-51805398D01*
X140674435Y-51805398D02*
X140674435Y-51948255D01*
X140674435Y-51948255D02*
X139960149Y-52091112D01*
X141317291Y-52591112D02*
X141317291Y-51591112D01*
X141317291Y-51733969D02*
X141388720Y-51662541D01*
X141388720Y-51662541D02*
X141531577Y-51591112D01*
X141531577Y-51591112D02*
X141745863Y-51591112D01*
X141745863Y-51591112D02*
X141888720Y-51662541D01*
X141888720Y-51662541D02*
X141960149Y-51805398D01*
X141960149Y-51805398D02*
X141960149Y-52591112D01*
X141960149Y-51805398D02*
X142031577Y-51662541D01*
X142031577Y-51662541D02*
X142174434Y-51591112D01*
X142174434Y-51591112D02*
X142388720Y-51591112D01*
X142388720Y-51591112D02*
X142531577Y-51662541D01*
X142531577Y-51662541D02*
X142603006Y-51805398D01*
X142603006Y-51805398D02*
X142603006Y-52591112D01*
X143245863Y-52519684D02*
X143388720Y-52591112D01*
X143388720Y-52591112D02*
X143674434Y-52591112D01*
X143674434Y-52591112D02*
X143817291Y-52519684D01*
X143817291Y-52519684D02*
X143888720Y-52376826D01*
X143888720Y-52376826D02*
X143888720Y-52305398D01*
X143888720Y-52305398D02*
X143817291Y-52162541D01*
X143817291Y-52162541D02*
X143674434Y-52091112D01*
X143674434Y-52091112D02*
X143460149Y-52091112D01*
X143460149Y-52091112D02*
X143317291Y-52019684D01*
X143317291Y-52019684D02*
X143245863Y-51876826D01*
X143245863Y-51876826D02*
X143245863Y-51805398D01*
X143245863Y-51805398D02*
X143317291Y-51662541D01*
X143317291Y-51662541D02*
X143460149Y-51591112D01*
X143460149Y-51591112D02*
X143674434Y-51591112D01*
X143674434Y-51591112D02*
X143817291Y-51662541D01*
X135388720Y-55006028D02*
X135388720Y-53506028D01*
X135388720Y-53506028D02*
X135745863Y-53506028D01*
X135745863Y-53506028D02*
X135960149Y-53577457D01*
X135960149Y-53577457D02*
X136103006Y-53720314D01*
X136103006Y-53720314D02*
X136174435Y-53863171D01*
X136174435Y-53863171D02*
X136245863Y-54148885D01*
X136245863Y-54148885D02*
X136245863Y-54363171D01*
X136245863Y-54363171D02*
X136174435Y-54648885D01*
X136174435Y-54648885D02*
X136103006Y-54791742D01*
X136103006Y-54791742D02*
X135960149Y-54934600D01*
X135960149Y-54934600D02*
X135745863Y-55006028D01*
X135745863Y-55006028D02*
X135388720Y-55006028D01*
X137460149Y-54934600D02*
X137317292Y-55006028D01*
X137317292Y-55006028D02*
X137031578Y-55006028D01*
X137031578Y-55006028D02*
X136888720Y-54934600D01*
X136888720Y-54934600D02*
X136817292Y-54791742D01*
X136817292Y-54791742D02*
X136817292Y-54220314D01*
X136817292Y-54220314D02*
X136888720Y-54077457D01*
X136888720Y-54077457D02*
X137031578Y-54006028D01*
X137031578Y-54006028D02*
X137317292Y-54006028D01*
X137317292Y-54006028D02*
X137460149Y-54077457D01*
X137460149Y-54077457D02*
X137531578Y-54220314D01*
X137531578Y-54220314D02*
X137531578Y-54363171D01*
X137531578Y-54363171D02*
X136817292Y-54506028D01*
X138103006Y-54934600D02*
X138245863Y-55006028D01*
X138245863Y-55006028D02*
X138531577Y-55006028D01*
X138531577Y-55006028D02*
X138674434Y-54934600D01*
X138674434Y-54934600D02*
X138745863Y-54791742D01*
X138745863Y-54791742D02*
X138745863Y-54720314D01*
X138745863Y-54720314D02*
X138674434Y-54577457D01*
X138674434Y-54577457D02*
X138531577Y-54506028D01*
X138531577Y-54506028D02*
X138317292Y-54506028D01*
X138317292Y-54506028D02*
X138174434Y-54434600D01*
X138174434Y-54434600D02*
X138103006Y-54291742D01*
X138103006Y-54291742D02*
X138103006Y-54220314D01*
X138103006Y-54220314D02*
X138174434Y-54077457D01*
X138174434Y-54077457D02*
X138317292Y-54006028D01*
X138317292Y-54006028D02*
X138531577Y-54006028D01*
X138531577Y-54006028D02*
X138674434Y-54077457D01*
X139388720Y-55006028D02*
X139388720Y-54006028D01*
X139388720Y-53506028D02*
X139317292Y-53577457D01*
X139317292Y-53577457D02*
X139388720Y-53648885D01*
X139388720Y-53648885D02*
X139460149Y-53577457D01*
X139460149Y-53577457D02*
X139388720Y-53506028D01*
X139388720Y-53506028D02*
X139388720Y-53648885D01*
X140745864Y-54006028D02*
X140745864Y-55220314D01*
X140745864Y-55220314D02*
X140674435Y-55363171D01*
X140674435Y-55363171D02*
X140603006Y-55434600D01*
X140603006Y-55434600D02*
X140460149Y-55506028D01*
X140460149Y-55506028D02*
X140245864Y-55506028D01*
X140245864Y-55506028D02*
X140103006Y-55434600D01*
X140745864Y-54934600D02*
X140603006Y-55006028D01*
X140603006Y-55006028D02*
X140317292Y-55006028D01*
X140317292Y-55006028D02*
X140174435Y-54934600D01*
X140174435Y-54934600D02*
X140103006Y-54863171D01*
X140103006Y-54863171D02*
X140031578Y-54720314D01*
X140031578Y-54720314D02*
X140031578Y-54291742D01*
X140031578Y-54291742D02*
X140103006Y-54148885D01*
X140103006Y-54148885D02*
X140174435Y-54077457D01*
X140174435Y-54077457D02*
X140317292Y-54006028D01*
X140317292Y-54006028D02*
X140603006Y-54006028D01*
X140603006Y-54006028D02*
X140745864Y-54077457D01*
X141460149Y-54006028D02*
X141460149Y-55006028D01*
X141460149Y-54148885D02*
X141531578Y-54077457D01*
X141531578Y-54077457D02*
X141674435Y-54006028D01*
X141674435Y-54006028D02*
X141888721Y-54006028D01*
X141888721Y-54006028D02*
X142031578Y-54077457D01*
X142031578Y-54077457D02*
X142103007Y-54220314D01*
X142103007Y-54220314D02*
X142103007Y-55006028D01*
D11*
X123573619Y-90713094D02*
X123549809Y-90760713D01*
X123549809Y-90760713D02*
X123549809Y-90832142D01*
X123549809Y-90832142D02*
X123573619Y-90903570D01*
X123573619Y-90903570D02*
X123621238Y-90951189D01*
X123621238Y-90951189D02*
X123668857Y-90974999D01*
X123668857Y-90974999D02*
X123764095Y-90998808D01*
X123764095Y-90998808D02*
X123835523Y-90998808D01*
X123835523Y-90998808D02*
X123930761Y-90974999D01*
X123930761Y-90974999D02*
X123978380Y-90951189D01*
X123978380Y-90951189D02*
X124026000Y-90903570D01*
X124026000Y-90903570D02*
X124049809Y-90832142D01*
X124049809Y-90832142D02*
X124049809Y-90784523D01*
X124049809Y-90784523D02*
X124026000Y-90713094D01*
X124026000Y-90713094D02*
X124002190Y-90689285D01*
X124002190Y-90689285D02*
X123835523Y-90689285D01*
X123835523Y-90689285D02*
X123835523Y-90784523D01*
X124049809Y-90474999D02*
X123549809Y-90474999D01*
X123549809Y-90474999D02*
X123549809Y-90284523D01*
X123549809Y-90284523D02*
X123573619Y-90236904D01*
X123573619Y-90236904D02*
X123597428Y-90213094D01*
X123597428Y-90213094D02*
X123645047Y-90189285D01*
X123645047Y-90189285D02*
X123716476Y-90189285D01*
X123716476Y-90189285D02*
X123764095Y-90213094D01*
X123764095Y-90213094D02*
X123787904Y-90236904D01*
X123787904Y-90236904D02*
X123811714Y-90284523D01*
X123811714Y-90284523D02*
X123811714Y-90474999D01*
X124049809Y-89974999D02*
X123549809Y-89974999D01*
X123549809Y-89641666D02*
X123549809Y-89546428D01*
X123549809Y-89546428D02*
X123573619Y-89498809D01*
X123573619Y-89498809D02*
X123621238Y-89451190D01*
X123621238Y-89451190D02*
X123716476Y-89427380D01*
X123716476Y-89427380D02*
X123883142Y-89427380D01*
X123883142Y-89427380D02*
X123978380Y-89451190D01*
X123978380Y-89451190D02*
X124026000Y-89498809D01*
X124026000Y-89498809D02*
X124049809Y-89546428D01*
X124049809Y-89546428D02*
X124049809Y-89641666D01*
X124049809Y-89641666D02*
X124026000Y-89689285D01*
X124026000Y-89689285D02*
X123978380Y-89736904D01*
X123978380Y-89736904D02*
X123883142Y-89760713D01*
X123883142Y-89760713D02*
X123716476Y-89760713D01*
X123716476Y-89760713D02*
X123621238Y-89736904D01*
X123621238Y-89736904D02*
X123573619Y-89689285D01*
X123573619Y-89689285D02*
X123549809Y-89641666D01*
X123549809Y-89260713D02*
X123549809Y-88951189D01*
X123549809Y-88951189D02*
X123740285Y-89117856D01*
X123740285Y-89117856D02*
X123740285Y-89046427D01*
X123740285Y-89046427D02*
X123764095Y-88998808D01*
X123764095Y-88998808D02*
X123787904Y-88974999D01*
X123787904Y-88974999D02*
X123835523Y-88951189D01*
X123835523Y-88951189D02*
X123954571Y-88951189D01*
X123954571Y-88951189D02*
X124002190Y-88974999D01*
X124002190Y-88974999D02*
X124026000Y-88998808D01*
X124026000Y-88998808D02*
X124049809Y-89046427D01*
X124049809Y-89046427D02*
X124049809Y-89189284D01*
X124049809Y-89189284D02*
X124026000Y-89236903D01*
X124026000Y-89236903D02*
X124002190Y-89260713D01*
X122473619Y-90688094D02*
X122449809Y-90735713D01*
X122449809Y-90735713D02*
X122449809Y-90807142D01*
X122449809Y-90807142D02*
X122473619Y-90878570D01*
X122473619Y-90878570D02*
X122521238Y-90926189D01*
X122521238Y-90926189D02*
X122568857Y-90949999D01*
X122568857Y-90949999D02*
X122664095Y-90973808D01*
X122664095Y-90973808D02*
X122735523Y-90973808D01*
X122735523Y-90973808D02*
X122830761Y-90949999D01*
X122830761Y-90949999D02*
X122878380Y-90926189D01*
X122878380Y-90926189D02*
X122926000Y-90878570D01*
X122926000Y-90878570D02*
X122949809Y-90807142D01*
X122949809Y-90807142D02*
X122949809Y-90759523D01*
X122949809Y-90759523D02*
X122926000Y-90688094D01*
X122926000Y-90688094D02*
X122902190Y-90664285D01*
X122902190Y-90664285D02*
X122735523Y-90664285D01*
X122735523Y-90664285D02*
X122735523Y-90759523D01*
X122949809Y-90449999D02*
X122449809Y-90449999D01*
X122449809Y-90449999D02*
X122449809Y-90259523D01*
X122449809Y-90259523D02*
X122473619Y-90211904D01*
X122473619Y-90211904D02*
X122497428Y-90188094D01*
X122497428Y-90188094D02*
X122545047Y-90164285D01*
X122545047Y-90164285D02*
X122616476Y-90164285D01*
X122616476Y-90164285D02*
X122664095Y-90188094D01*
X122664095Y-90188094D02*
X122687904Y-90211904D01*
X122687904Y-90211904D02*
X122711714Y-90259523D01*
X122711714Y-90259523D02*
X122711714Y-90449999D01*
X122949809Y-89949999D02*
X122449809Y-89949999D01*
X122449809Y-89616666D02*
X122449809Y-89521428D01*
X122449809Y-89521428D02*
X122473619Y-89473809D01*
X122473619Y-89473809D02*
X122521238Y-89426190D01*
X122521238Y-89426190D02*
X122616476Y-89402380D01*
X122616476Y-89402380D02*
X122783142Y-89402380D01*
X122783142Y-89402380D02*
X122878380Y-89426190D01*
X122878380Y-89426190D02*
X122926000Y-89473809D01*
X122926000Y-89473809D02*
X122949809Y-89521428D01*
X122949809Y-89521428D02*
X122949809Y-89616666D01*
X122949809Y-89616666D02*
X122926000Y-89664285D01*
X122926000Y-89664285D02*
X122878380Y-89711904D01*
X122878380Y-89711904D02*
X122783142Y-89735713D01*
X122783142Y-89735713D02*
X122616476Y-89735713D01*
X122616476Y-89735713D02*
X122521238Y-89711904D01*
X122521238Y-89711904D02*
X122473619Y-89664285D01*
X122473619Y-89664285D02*
X122449809Y-89616666D01*
X122497428Y-89211903D02*
X122473619Y-89188094D01*
X122473619Y-89188094D02*
X122449809Y-89140475D01*
X122449809Y-89140475D02*
X122449809Y-89021427D01*
X122449809Y-89021427D02*
X122473619Y-88973808D01*
X122473619Y-88973808D02*
X122497428Y-88949999D01*
X122497428Y-88949999D02*
X122545047Y-88926189D01*
X122545047Y-88926189D02*
X122592666Y-88926189D01*
X122592666Y-88926189D02*
X122664095Y-88949999D01*
X122664095Y-88949999D02*
X122949809Y-89235713D01*
X122949809Y-89235713D02*
X122949809Y-88926189D01*
X124573619Y-90738094D02*
X124549809Y-90785713D01*
X124549809Y-90785713D02*
X124549809Y-90857142D01*
X124549809Y-90857142D02*
X124573619Y-90928570D01*
X124573619Y-90928570D02*
X124621238Y-90976189D01*
X124621238Y-90976189D02*
X124668857Y-90999999D01*
X124668857Y-90999999D02*
X124764095Y-91023808D01*
X124764095Y-91023808D02*
X124835523Y-91023808D01*
X124835523Y-91023808D02*
X124930761Y-90999999D01*
X124930761Y-90999999D02*
X124978380Y-90976189D01*
X124978380Y-90976189D02*
X125026000Y-90928570D01*
X125026000Y-90928570D02*
X125049809Y-90857142D01*
X125049809Y-90857142D02*
X125049809Y-90809523D01*
X125049809Y-90809523D02*
X125026000Y-90738094D01*
X125026000Y-90738094D02*
X125002190Y-90714285D01*
X125002190Y-90714285D02*
X124835523Y-90714285D01*
X124835523Y-90714285D02*
X124835523Y-90809523D01*
X125049809Y-90499999D02*
X124549809Y-90499999D01*
X124549809Y-90499999D02*
X124549809Y-90309523D01*
X124549809Y-90309523D02*
X124573619Y-90261904D01*
X124573619Y-90261904D02*
X124597428Y-90238094D01*
X124597428Y-90238094D02*
X124645047Y-90214285D01*
X124645047Y-90214285D02*
X124716476Y-90214285D01*
X124716476Y-90214285D02*
X124764095Y-90238094D01*
X124764095Y-90238094D02*
X124787904Y-90261904D01*
X124787904Y-90261904D02*
X124811714Y-90309523D01*
X124811714Y-90309523D02*
X124811714Y-90499999D01*
X125049809Y-89999999D02*
X124549809Y-89999999D01*
X124549809Y-89666666D02*
X124549809Y-89571428D01*
X124549809Y-89571428D02*
X124573619Y-89523809D01*
X124573619Y-89523809D02*
X124621238Y-89476190D01*
X124621238Y-89476190D02*
X124716476Y-89452380D01*
X124716476Y-89452380D02*
X124883142Y-89452380D01*
X124883142Y-89452380D02*
X124978380Y-89476190D01*
X124978380Y-89476190D02*
X125026000Y-89523809D01*
X125026000Y-89523809D02*
X125049809Y-89571428D01*
X125049809Y-89571428D02*
X125049809Y-89666666D01*
X125049809Y-89666666D02*
X125026000Y-89714285D01*
X125026000Y-89714285D02*
X124978380Y-89761904D01*
X124978380Y-89761904D02*
X124883142Y-89785713D01*
X124883142Y-89785713D02*
X124716476Y-89785713D01*
X124716476Y-89785713D02*
X124621238Y-89761904D01*
X124621238Y-89761904D02*
X124573619Y-89714285D01*
X124573619Y-89714285D02*
X124549809Y-89666666D01*
X124716476Y-89023808D02*
X125049809Y-89023808D01*
X124526000Y-89142856D02*
X124883142Y-89261903D01*
X124883142Y-89261903D02*
X124883142Y-88952380D01*
X127649809Y-50032141D02*
X128149809Y-49865475D01*
X128149809Y-49865475D02*
X127649809Y-49698808D01*
X128126000Y-49555951D02*
X128149809Y-49484523D01*
X128149809Y-49484523D02*
X128149809Y-49365475D01*
X128149809Y-49365475D02*
X128126000Y-49317856D01*
X128126000Y-49317856D02*
X128102190Y-49294047D01*
X128102190Y-49294047D02*
X128054571Y-49270237D01*
X128054571Y-49270237D02*
X128006952Y-49270237D01*
X128006952Y-49270237D02*
X127959333Y-49294047D01*
X127959333Y-49294047D02*
X127935523Y-49317856D01*
X127935523Y-49317856D02*
X127911714Y-49365475D01*
X127911714Y-49365475D02*
X127887904Y-49460713D01*
X127887904Y-49460713D02*
X127864095Y-49508332D01*
X127864095Y-49508332D02*
X127840285Y-49532142D01*
X127840285Y-49532142D02*
X127792666Y-49555951D01*
X127792666Y-49555951D02*
X127745047Y-49555951D01*
X127745047Y-49555951D02*
X127697428Y-49532142D01*
X127697428Y-49532142D02*
X127673619Y-49508332D01*
X127673619Y-49508332D02*
X127649809Y-49460713D01*
X127649809Y-49460713D02*
X127649809Y-49341666D01*
X127649809Y-49341666D02*
X127673619Y-49270237D01*
X127911714Y-48960714D02*
X128149809Y-48960714D01*
X127649809Y-49127380D02*
X127911714Y-48960714D01*
X127911714Y-48960714D02*
X127649809Y-48794047D01*
X128126000Y-48651190D02*
X128149809Y-48579762D01*
X128149809Y-48579762D02*
X128149809Y-48460714D01*
X128149809Y-48460714D02*
X128126000Y-48413095D01*
X128126000Y-48413095D02*
X128102190Y-48389286D01*
X128102190Y-48389286D02*
X128054571Y-48365476D01*
X128054571Y-48365476D02*
X128006952Y-48365476D01*
X128006952Y-48365476D02*
X127959333Y-48389286D01*
X127959333Y-48389286D02*
X127935523Y-48413095D01*
X127935523Y-48413095D02*
X127911714Y-48460714D01*
X127911714Y-48460714D02*
X127887904Y-48555952D01*
X127887904Y-48555952D02*
X127864095Y-48603571D01*
X127864095Y-48603571D02*
X127840285Y-48627381D01*
X127840285Y-48627381D02*
X127792666Y-48651190D01*
X127792666Y-48651190D02*
X127745047Y-48651190D01*
X127745047Y-48651190D02*
X127697428Y-48627381D01*
X127697428Y-48627381D02*
X127673619Y-48603571D01*
X127673619Y-48603571D02*
X127649809Y-48555952D01*
X127649809Y-48555952D02*
X127649809Y-48436905D01*
X127649809Y-48436905D02*
X127673619Y-48365476D01*
X128699809Y-49971427D02*
X129199809Y-49804761D01*
X129199809Y-49804761D02*
X128699809Y-49638094D01*
X128937904Y-49304761D02*
X128961714Y-49233333D01*
X128961714Y-49233333D02*
X128985523Y-49209523D01*
X128985523Y-49209523D02*
X129033142Y-49185714D01*
X129033142Y-49185714D02*
X129104571Y-49185714D01*
X129104571Y-49185714D02*
X129152190Y-49209523D01*
X129152190Y-49209523D02*
X129176000Y-49233333D01*
X129176000Y-49233333D02*
X129199809Y-49280952D01*
X129199809Y-49280952D02*
X129199809Y-49471428D01*
X129199809Y-49471428D02*
X128699809Y-49471428D01*
X128699809Y-49471428D02*
X128699809Y-49304761D01*
X128699809Y-49304761D02*
X128723619Y-49257142D01*
X128723619Y-49257142D02*
X128747428Y-49233333D01*
X128747428Y-49233333D02*
X128795047Y-49209523D01*
X128795047Y-49209523D02*
X128842666Y-49209523D01*
X128842666Y-49209523D02*
X128890285Y-49233333D01*
X128890285Y-49233333D02*
X128914095Y-49257142D01*
X128914095Y-49257142D02*
X128937904Y-49304761D01*
X128937904Y-49304761D02*
X128937904Y-49471428D01*
X129056952Y-48995237D02*
X129056952Y-48757142D01*
X129199809Y-49042856D02*
X128699809Y-48876190D01*
X128699809Y-48876190D02*
X129199809Y-48709523D01*
X128699809Y-48614285D02*
X128699809Y-48328571D01*
X129199809Y-48471428D02*
X128699809Y-48471428D01*
X123999809Y-49767856D02*
X123999809Y-50005951D01*
X123999809Y-50005951D02*
X123499809Y-50005951D01*
X123976000Y-49624998D02*
X123999809Y-49553570D01*
X123999809Y-49553570D02*
X123999809Y-49434522D01*
X123999809Y-49434522D02*
X123976000Y-49386903D01*
X123976000Y-49386903D02*
X123952190Y-49363094D01*
X123952190Y-49363094D02*
X123904571Y-49339284D01*
X123904571Y-49339284D02*
X123856952Y-49339284D01*
X123856952Y-49339284D02*
X123809333Y-49363094D01*
X123809333Y-49363094D02*
X123785523Y-49386903D01*
X123785523Y-49386903D02*
X123761714Y-49434522D01*
X123761714Y-49434522D02*
X123737904Y-49529760D01*
X123737904Y-49529760D02*
X123714095Y-49577379D01*
X123714095Y-49577379D02*
X123690285Y-49601189D01*
X123690285Y-49601189D02*
X123642666Y-49624998D01*
X123642666Y-49624998D02*
X123595047Y-49624998D01*
X123595047Y-49624998D02*
X123547428Y-49601189D01*
X123547428Y-49601189D02*
X123523619Y-49577379D01*
X123523619Y-49577379D02*
X123499809Y-49529760D01*
X123499809Y-49529760D02*
X123499809Y-49410713D01*
X123499809Y-49410713D02*
X123523619Y-49339284D01*
X123999809Y-48863094D02*
X123999809Y-49148808D01*
X123999809Y-49005951D02*
X123499809Y-49005951D01*
X123499809Y-49005951D02*
X123571238Y-49053570D01*
X123571238Y-49053570D02*
X123618857Y-49101189D01*
X123618857Y-49101189D02*
X123642666Y-49148808D01*
X124047428Y-48767857D02*
X124047428Y-48386904D01*
X123999809Y-48267857D02*
X123499809Y-48267857D01*
X123999809Y-48029762D02*
X123499809Y-48029762D01*
X123499809Y-48029762D02*
X123999809Y-47744048D01*
X123999809Y-47744048D02*
X123499809Y-47744048D01*
D13*
X100938095Y-87654819D02*
X100938095Y-86654819D01*
X100938095Y-87131009D02*
X101509523Y-87131009D01*
X101509523Y-87654819D02*
X101509523Y-86654819D01*
X102509523Y-87654819D02*
X101938095Y-87654819D01*
X102223809Y-87654819D02*
X102223809Y-86654819D01*
X102223809Y-86654819D02*
X102128571Y-86797676D01*
X102128571Y-86797676D02*
X102033333Y-86892914D01*
X102033333Y-86892914D02*
X101938095Y-86940533D01*
X146566666Y-60154819D02*
X146566666Y-60869104D01*
X146566666Y-60869104D02*
X146519047Y-61011961D01*
X146519047Y-61011961D02*
X146423809Y-61107200D01*
X146423809Y-61107200D02*
X146280952Y-61154819D01*
X146280952Y-61154819D02*
X146185714Y-61154819D01*
X147519047Y-60154819D02*
X147042857Y-60154819D01*
X147042857Y-60154819D02*
X146995238Y-60631009D01*
X146995238Y-60631009D02*
X147042857Y-60583390D01*
X147042857Y-60583390D02*
X147138095Y-60535771D01*
X147138095Y-60535771D02*
X147376190Y-60535771D01*
X147376190Y-60535771D02*
X147471428Y-60583390D01*
X147471428Y-60583390D02*
X147519047Y-60631009D01*
X147519047Y-60631009D02*
X147566666Y-60726247D01*
X147566666Y-60726247D02*
X147566666Y-60964342D01*
X147566666Y-60964342D02*
X147519047Y-61059580D01*
X147519047Y-61059580D02*
X147471428Y-61107200D01*
X147471428Y-61107200D02*
X147376190Y-61154819D01*
X147376190Y-61154819D02*
X147138095Y-61154819D01*
X147138095Y-61154819D02*
X147042857Y-61107200D01*
X147042857Y-61107200D02*
X146995238Y-61059580D01*
X133233333Y-83284819D02*
X132900000Y-82808628D01*
X132661905Y-83284819D02*
X132661905Y-82284819D01*
X132661905Y-82284819D02*
X133042857Y-82284819D01*
X133042857Y-82284819D02*
X133138095Y-82332438D01*
X133138095Y-82332438D02*
X133185714Y-82380057D01*
X133185714Y-82380057D02*
X133233333Y-82475295D01*
X133233333Y-82475295D02*
X133233333Y-82618152D01*
X133233333Y-82618152D02*
X133185714Y-82713390D01*
X133185714Y-82713390D02*
X133138095Y-82761009D01*
X133138095Y-82761009D02*
X133042857Y-82808628D01*
X133042857Y-82808628D02*
X132661905Y-82808628D01*
X134090476Y-82618152D02*
X134090476Y-83284819D01*
X133852381Y-82237200D02*
X133614286Y-82951485D01*
X133614286Y-82951485D02*
X134233333Y-82951485D01*
X138966666Y-58254819D02*
X138966666Y-58969104D01*
X138966666Y-58969104D02*
X138919047Y-59111961D01*
X138919047Y-59111961D02*
X138823809Y-59207200D01*
X138823809Y-59207200D02*
X138680952Y-59254819D01*
X138680952Y-59254819D02*
X138585714Y-59254819D01*
X139442857Y-59254819D02*
X139442857Y-58254819D01*
X139442857Y-58254819D02*
X139823809Y-58254819D01*
X139823809Y-58254819D02*
X139919047Y-58302438D01*
X139919047Y-58302438D02*
X139966666Y-58350057D01*
X139966666Y-58350057D02*
X140014285Y-58445295D01*
X140014285Y-58445295D02*
X140014285Y-58588152D01*
X140014285Y-58588152D02*
X139966666Y-58683390D01*
X139966666Y-58683390D02*
X139919047Y-58731009D01*
X139919047Y-58731009D02*
X139823809Y-58778628D01*
X139823809Y-58778628D02*
X139442857Y-58778628D01*
X140871428Y-58588152D02*
X140871428Y-59254819D01*
X140633333Y-58207200D02*
X140395238Y-58921485D01*
X140395238Y-58921485D02*
X141014285Y-58921485D01*
X110416666Y-58254819D02*
X110416666Y-58969104D01*
X110416666Y-58969104D02*
X110369047Y-59111961D01*
X110369047Y-59111961D02*
X110273809Y-59207200D01*
X110273809Y-59207200D02*
X110130952Y-59254819D01*
X110130952Y-59254819D02*
X110035714Y-59254819D01*
X110892857Y-59254819D02*
X110892857Y-58254819D01*
X110892857Y-58254819D02*
X111273809Y-58254819D01*
X111273809Y-58254819D02*
X111369047Y-58302438D01*
X111369047Y-58302438D02*
X111416666Y-58350057D01*
X111416666Y-58350057D02*
X111464285Y-58445295D01*
X111464285Y-58445295D02*
X111464285Y-58588152D01*
X111464285Y-58588152D02*
X111416666Y-58683390D01*
X111416666Y-58683390D02*
X111369047Y-58731009D01*
X111369047Y-58731009D02*
X111273809Y-58778628D01*
X111273809Y-58778628D02*
X110892857Y-58778628D01*
X112416666Y-59254819D02*
X111845238Y-59254819D01*
X112130952Y-59254819D02*
X112130952Y-58254819D01*
X112130952Y-58254819D02*
X112035714Y-58397676D01*
X112035714Y-58397676D02*
X111940476Y-58492914D01*
X111940476Y-58492914D02*
X111845238Y-58540533D01*
X142533333Y-75559580D02*
X142485714Y-75607200D01*
X142485714Y-75607200D02*
X142342857Y-75654819D01*
X142342857Y-75654819D02*
X142247619Y-75654819D01*
X142247619Y-75654819D02*
X142104762Y-75607200D01*
X142104762Y-75607200D02*
X142009524Y-75511961D01*
X142009524Y-75511961D02*
X141961905Y-75416723D01*
X141961905Y-75416723D02*
X141914286Y-75226247D01*
X141914286Y-75226247D02*
X141914286Y-75083390D01*
X141914286Y-75083390D02*
X141961905Y-74892914D01*
X141961905Y-74892914D02*
X142009524Y-74797676D01*
X142009524Y-74797676D02*
X142104762Y-74702438D01*
X142104762Y-74702438D02*
X142247619Y-74654819D01*
X142247619Y-74654819D02*
X142342857Y-74654819D01*
X142342857Y-74654819D02*
X142485714Y-74702438D01*
X142485714Y-74702438D02*
X142533333Y-74750057D01*
X143485714Y-75654819D02*
X142914286Y-75654819D01*
X143200000Y-75654819D02*
X143200000Y-74654819D01*
X143200000Y-74654819D02*
X143104762Y-74797676D01*
X143104762Y-74797676D02*
X143009524Y-74892914D01*
X143009524Y-74892914D02*
X142914286Y-74940533D01*
X110216666Y-64454819D02*
X110216666Y-65169104D01*
X110216666Y-65169104D02*
X110169047Y-65311961D01*
X110169047Y-65311961D02*
X110073809Y-65407200D01*
X110073809Y-65407200D02*
X109930952Y-65454819D01*
X109930952Y-65454819D02*
X109835714Y-65454819D01*
X110692857Y-65454819D02*
X110692857Y-64454819D01*
X110692857Y-64454819D02*
X111073809Y-64454819D01*
X111073809Y-64454819D02*
X111169047Y-64502438D01*
X111169047Y-64502438D02*
X111216666Y-64550057D01*
X111216666Y-64550057D02*
X111264285Y-64645295D01*
X111264285Y-64645295D02*
X111264285Y-64788152D01*
X111264285Y-64788152D02*
X111216666Y-64883390D01*
X111216666Y-64883390D02*
X111169047Y-64931009D01*
X111169047Y-64931009D02*
X111073809Y-64978628D01*
X111073809Y-64978628D02*
X110692857Y-64978628D01*
X111597619Y-64454819D02*
X112216666Y-64454819D01*
X112216666Y-64454819D02*
X111883333Y-64835771D01*
X111883333Y-64835771D02*
X112026190Y-64835771D01*
X112026190Y-64835771D02*
X112121428Y-64883390D01*
X112121428Y-64883390D02*
X112169047Y-64931009D01*
X112169047Y-64931009D02*
X112216666Y-65026247D01*
X112216666Y-65026247D02*
X112216666Y-65264342D01*
X112216666Y-65264342D02*
X112169047Y-65359580D01*
X112169047Y-65359580D02*
X112121428Y-65407200D01*
X112121428Y-65407200D02*
X112026190Y-65454819D01*
X112026190Y-65454819D02*
X111740476Y-65454819D01*
X111740476Y-65454819D02*
X111645238Y-65407200D01*
X111645238Y-65407200D02*
X111597619Y-65359580D01*
X104107200Y-61283332D02*
X104154819Y-61140475D01*
X104154819Y-61140475D02*
X104154819Y-60902380D01*
X104154819Y-60902380D02*
X104107200Y-60807142D01*
X104107200Y-60807142D02*
X104059580Y-60759523D01*
X104059580Y-60759523D02*
X103964342Y-60711904D01*
X103964342Y-60711904D02*
X103869104Y-60711904D01*
X103869104Y-60711904D02*
X103773866Y-60759523D01*
X103773866Y-60759523D02*
X103726247Y-60807142D01*
X103726247Y-60807142D02*
X103678628Y-60902380D01*
X103678628Y-60902380D02*
X103631009Y-61092856D01*
X103631009Y-61092856D02*
X103583390Y-61188094D01*
X103583390Y-61188094D02*
X103535771Y-61235713D01*
X103535771Y-61235713D02*
X103440533Y-61283332D01*
X103440533Y-61283332D02*
X103345295Y-61283332D01*
X103345295Y-61283332D02*
X103250057Y-61235713D01*
X103250057Y-61235713D02*
X103202438Y-61188094D01*
X103202438Y-61188094D02*
X103154819Y-61092856D01*
X103154819Y-61092856D02*
X103154819Y-60854761D01*
X103154819Y-60854761D02*
X103202438Y-60711904D01*
X103154819Y-60378570D02*
X104154819Y-60140475D01*
X104154819Y-60140475D02*
X103440533Y-59949999D01*
X103440533Y-59949999D02*
X104154819Y-59759523D01*
X104154819Y-59759523D02*
X103154819Y-59521428D01*
X103250057Y-59188094D02*
X103202438Y-59140475D01*
X103202438Y-59140475D02*
X103154819Y-59045237D01*
X103154819Y-59045237D02*
X103154819Y-58807142D01*
X103154819Y-58807142D02*
X103202438Y-58711904D01*
X103202438Y-58711904D02*
X103250057Y-58664285D01*
X103250057Y-58664285D02*
X103345295Y-58616666D01*
X103345295Y-58616666D02*
X103440533Y-58616666D01*
X103440533Y-58616666D02*
X103583390Y-58664285D01*
X103583390Y-58664285D02*
X104154819Y-59235713D01*
X104154819Y-59235713D02*
X104154819Y-58616666D01*
X139416666Y-70054819D02*
X139416666Y-70769104D01*
X139416666Y-70769104D02*
X139369047Y-70911961D01*
X139369047Y-70911961D02*
X139273809Y-71007200D01*
X139273809Y-71007200D02*
X139130952Y-71054819D01*
X139130952Y-71054819D02*
X139035714Y-71054819D01*
X139892857Y-71054819D02*
X139892857Y-70054819D01*
X139892857Y-70054819D02*
X140273809Y-70054819D01*
X140273809Y-70054819D02*
X140369047Y-70102438D01*
X140369047Y-70102438D02*
X140416666Y-70150057D01*
X140416666Y-70150057D02*
X140464285Y-70245295D01*
X140464285Y-70245295D02*
X140464285Y-70388152D01*
X140464285Y-70388152D02*
X140416666Y-70483390D01*
X140416666Y-70483390D02*
X140369047Y-70531009D01*
X140369047Y-70531009D02*
X140273809Y-70578628D01*
X140273809Y-70578628D02*
X139892857Y-70578628D01*
X140845238Y-70150057D02*
X140892857Y-70102438D01*
X140892857Y-70102438D02*
X140988095Y-70054819D01*
X140988095Y-70054819D02*
X141226190Y-70054819D01*
X141226190Y-70054819D02*
X141321428Y-70102438D01*
X141321428Y-70102438D02*
X141369047Y-70150057D01*
X141369047Y-70150057D02*
X141416666Y-70245295D01*
X141416666Y-70245295D02*
X141416666Y-70340533D01*
X141416666Y-70340533D02*
X141369047Y-70483390D01*
X141369047Y-70483390D02*
X140797619Y-71054819D01*
X140797619Y-71054819D02*
X141416666Y-71054819D01*
X147638095Y-88354819D02*
X147638095Y-87354819D01*
X147638095Y-87831009D02*
X148209523Y-87831009D01*
X148209523Y-88354819D02*
X148209523Y-87354819D01*
X148590476Y-87354819D02*
X149209523Y-87354819D01*
X149209523Y-87354819D02*
X148876190Y-87735771D01*
X148876190Y-87735771D02*
X149019047Y-87735771D01*
X149019047Y-87735771D02*
X149114285Y-87783390D01*
X149114285Y-87783390D02*
X149161904Y-87831009D01*
X149161904Y-87831009D02*
X149209523Y-87926247D01*
X149209523Y-87926247D02*
X149209523Y-88164342D01*
X149209523Y-88164342D02*
X149161904Y-88259580D01*
X149161904Y-88259580D02*
X149114285Y-88307200D01*
X149114285Y-88307200D02*
X149019047Y-88354819D01*
X149019047Y-88354819D02*
X148733333Y-88354819D01*
X148733333Y-88354819D02*
X148638095Y-88307200D01*
X148638095Y-88307200D02*
X148590476Y-88259580D01*
X142233333Y-63959580D02*
X142185714Y-64007200D01*
X142185714Y-64007200D02*
X142042857Y-64054819D01*
X142042857Y-64054819D02*
X141947619Y-64054819D01*
X141947619Y-64054819D02*
X141804762Y-64007200D01*
X141804762Y-64007200D02*
X141709524Y-63911961D01*
X141709524Y-63911961D02*
X141661905Y-63816723D01*
X141661905Y-63816723D02*
X141614286Y-63626247D01*
X141614286Y-63626247D02*
X141614286Y-63483390D01*
X141614286Y-63483390D02*
X141661905Y-63292914D01*
X141661905Y-63292914D02*
X141709524Y-63197676D01*
X141709524Y-63197676D02*
X141804762Y-63102438D01*
X141804762Y-63102438D02*
X141947619Y-63054819D01*
X141947619Y-63054819D02*
X142042857Y-63054819D01*
X142042857Y-63054819D02*
X142185714Y-63102438D01*
X142185714Y-63102438D02*
X142233333Y-63150057D01*
X143090476Y-63388152D02*
X143090476Y-64054819D01*
X142852381Y-63007200D02*
X142614286Y-63721485D01*
X142614286Y-63721485D02*
X143233333Y-63721485D01*
X101438095Y-52554819D02*
X101438095Y-51554819D01*
X101438095Y-52031009D02*
X102009523Y-52031009D01*
X102009523Y-52554819D02*
X102009523Y-51554819D01*
X102438095Y-51650057D02*
X102485714Y-51602438D01*
X102485714Y-51602438D02*
X102580952Y-51554819D01*
X102580952Y-51554819D02*
X102819047Y-51554819D01*
X102819047Y-51554819D02*
X102914285Y-51602438D01*
X102914285Y-51602438D02*
X102961904Y-51650057D01*
X102961904Y-51650057D02*
X103009523Y-51745295D01*
X103009523Y-51745295D02*
X103009523Y-51840533D01*
X103009523Y-51840533D02*
X102961904Y-51983390D01*
X102961904Y-51983390D02*
X102390476Y-52554819D01*
X102390476Y-52554819D02*
X103009523Y-52554819D01*
X130883333Y-83284819D02*
X130550000Y-82808628D01*
X130311905Y-83284819D02*
X130311905Y-82284819D01*
X130311905Y-82284819D02*
X130692857Y-82284819D01*
X130692857Y-82284819D02*
X130788095Y-82332438D01*
X130788095Y-82332438D02*
X130835714Y-82380057D01*
X130835714Y-82380057D02*
X130883333Y-82475295D01*
X130883333Y-82475295D02*
X130883333Y-82618152D01*
X130883333Y-82618152D02*
X130835714Y-82713390D01*
X130835714Y-82713390D02*
X130788095Y-82761009D01*
X130788095Y-82761009D02*
X130692857Y-82808628D01*
X130692857Y-82808628D02*
X130311905Y-82808628D01*
X131216667Y-82284819D02*
X131835714Y-82284819D01*
X131835714Y-82284819D02*
X131502381Y-82665771D01*
X131502381Y-82665771D02*
X131645238Y-82665771D01*
X131645238Y-82665771D02*
X131740476Y-82713390D01*
X131740476Y-82713390D02*
X131788095Y-82761009D01*
X131788095Y-82761009D02*
X131835714Y-82856247D01*
X131835714Y-82856247D02*
X131835714Y-83094342D01*
X131835714Y-83094342D02*
X131788095Y-83189580D01*
X131788095Y-83189580D02*
X131740476Y-83237200D01*
X131740476Y-83237200D02*
X131645238Y-83284819D01*
X131645238Y-83284819D02*
X131359524Y-83284819D01*
X131359524Y-83284819D02*
X131264286Y-83237200D01*
X131264286Y-83237200D02*
X131216667Y-83189580D01*
X142233333Y-66659580D02*
X142185714Y-66707200D01*
X142185714Y-66707200D02*
X142042857Y-66754819D01*
X142042857Y-66754819D02*
X141947619Y-66754819D01*
X141947619Y-66754819D02*
X141804762Y-66707200D01*
X141804762Y-66707200D02*
X141709524Y-66611961D01*
X141709524Y-66611961D02*
X141661905Y-66516723D01*
X141661905Y-66516723D02*
X141614286Y-66326247D01*
X141614286Y-66326247D02*
X141614286Y-66183390D01*
X141614286Y-66183390D02*
X141661905Y-65992914D01*
X141661905Y-65992914D02*
X141709524Y-65897676D01*
X141709524Y-65897676D02*
X141804762Y-65802438D01*
X141804762Y-65802438D02*
X141947619Y-65754819D01*
X141947619Y-65754819D02*
X142042857Y-65754819D01*
X142042857Y-65754819D02*
X142185714Y-65802438D01*
X142185714Y-65802438D02*
X142233333Y-65850057D01*
X142566667Y-65754819D02*
X143185714Y-65754819D01*
X143185714Y-65754819D02*
X142852381Y-66135771D01*
X142852381Y-66135771D02*
X142995238Y-66135771D01*
X142995238Y-66135771D02*
X143090476Y-66183390D01*
X143090476Y-66183390D02*
X143138095Y-66231009D01*
X143138095Y-66231009D02*
X143185714Y-66326247D01*
X143185714Y-66326247D02*
X143185714Y-66564342D01*
X143185714Y-66564342D02*
X143138095Y-66659580D01*
X143138095Y-66659580D02*
X143090476Y-66707200D01*
X143090476Y-66707200D02*
X142995238Y-66754819D01*
X142995238Y-66754819D02*
X142709524Y-66754819D01*
X142709524Y-66754819D02*
X142614286Y-66707200D01*
X142614286Y-66707200D02*
X142566667Y-66659580D01*
X115266666Y-49954819D02*
X115266666Y-50669104D01*
X115266666Y-50669104D02*
X115219047Y-50811961D01*
X115219047Y-50811961D02*
X115123809Y-50907200D01*
X115123809Y-50907200D02*
X114980952Y-50954819D01*
X114980952Y-50954819D02*
X114885714Y-50954819D01*
X115647619Y-49954819D02*
X116314285Y-49954819D01*
X116314285Y-49954819D02*
X115885714Y-50954819D01*
X147138095Y-53054819D02*
X147138095Y-52054819D01*
X147138095Y-52531009D02*
X147709523Y-52531009D01*
X147709523Y-53054819D02*
X147709523Y-52054819D01*
X148614285Y-52388152D02*
X148614285Y-53054819D01*
X148376190Y-52007200D02*
X148138095Y-52721485D01*
X148138095Y-52721485D02*
X148757142Y-52721485D01*
X126383333Y-83154819D02*
X126050000Y-82678628D01*
X125811905Y-83154819D02*
X125811905Y-82154819D01*
X125811905Y-82154819D02*
X126192857Y-82154819D01*
X126192857Y-82154819D02*
X126288095Y-82202438D01*
X126288095Y-82202438D02*
X126335714Y-82250057D01*
X126335714Y-82250057D02*
X126383333Y-82345295D01*
X126383333Y-82345295D02*
X126383333Y-82488152D01*
X126383333Y-82488152D02*
X126335714Y-82583390D01*
X126335714Y-82583390D02*
X126288095Y-82631009D01*
X126288095Y-82631009D02*
X126192857Y-82678628D01*
X126192857Y-82678628D02*
X125811905Y-82678628D01*
X126764286Y-82250057D02*
X126811905Y-82202438D01*
X126811905Y-82202438D02*
X126907143Y-82154819D01*
X126907143Y-82154819D02*
X127145238Y-82154819D01*
X127145238Y-82154819D02*
X127240476Y-82202438D01*
X127240476Y-82202438D02*
X127288095Y-82250057D01*
X127288095Y-82250057D02*
X127335714Y-82345295D01*
X127335714Y-82345295D02*
X127335714Y-82440533D01*
X127335714Y-82440533D02*
X127288095Y-82583390D01*
X127288095Y-82583390D02*
X126716667Y-83154819D01*
X126716667Y-83154819D02*
X127335714Y-83154819D01*
X123730833Y-83184819D02*
X123397500Y-82708628D01*
X123159405Y-83184819D02*
X123159405Y-82184819D01*
X123159405Y-82184819D02*
X123540357Y-82184819D01*
X123540357Y-82184819D02*
X123635595Y-82232438D01*
X123635595Y-82232438D02*
X123683214Y-82280057D01*
X123683214Y-82280057D02*
X123730833Y-82375295D01*
X123730833Y-82375295D02*
X123730833Y-82518152D01*
X123730833Y-82518152D02*
X123683214Y-82613390D01*
X123683214Y-82613390D02*
X123635595Y-82661009D01*
X123635595Y-82661009D02*
X123540357Y-82708628D01*
X123540357Y-82708628D02*
X123159405Y-82708628D01*
X124683214Y-83184819D02*
X124111786Y-83184819D01*
X124397500Y-83184819D02*
X124397500Y-82184819D01*
X124397500Y-82184819D02*
X124302262Y-82327676D01*
X124302262Y-82327676D02*
X124207024Y-82422914D01*
X124207024Y-82422914D02*
X124111786Y-82470533D01*
X143266666Y-70454819D02*
X143266666Y-71169104D01*
X143266666Y-71169104D02*
X143219047Y-71311961D01*
X143219047Y-71311961D02*
X143123809Y-71407200D01*
X143123809Y-71407200D02*
X142980952Y-71454819D01*
X142980952Y-71454819D02*
X142885714Y-71454819D01*
X144171428Y-70788152D02*
X144171428Y-71454819D01*
X143933333Y-70407200D02*
X143695238Y-71121485D01*
X143695238Y-71121485D02*
X144314285Y-71121485D01*
X142433333Y-77259580D02*
X142385714Y-77307200D01*
X142385714Y-77307200D02*
X142242857Y-77354819D01*
X142242857Y-77354819D02*
X142147619Y-77354819D01*
X142147619Y-77354819D02*
X142004762Y-77307200D01*
X142004762Y-77307200D02*
X141909524Y-77211961D01*
X141909524Y-77211961D02*
X141861905Y-77116723D01*
X141861905Y-77116723D02*
X141814286Y-76926247D01*
X141814286Y-76926247D02*
X141814286Y-76783390D01*
X141814286Y-76783390D02*
X141861905Y-76592914D01*
X141861905Y-76592914D02*
X141909524Y-76497676D01*
X141909524Y-76497676D02*
X142004762Y-76402438D01*
X142004762Y-76402438D02*
X142147619Y-76354819D01*
X142147619Y-76354819D02*
X142242857Y-76354819D01*
X142242857Y-76354819D02*
X142385714Y-76402438D01*
X142385714Y-76402438D02*
X142433333Y-76450057D01*
X142814286Y-76450057D02*
X142861905Y-76402438D01*
X142861905Y-76402438D02*
X142957143Y-76354819D01*
X142957143Y-76354819D02*
X143195238Y-76354819D01*
X143195238Y-76354819D02*
X143290476Y-76402438D01*
X143290476Y-76402438D02*
X143338095Y-76450057D01*
X143338095Y-76450057D02*
X143385714Y-76545295D01*
X143385714Y-76545295D02*
X143385714Y-76640533D01*
X143385714Y-76640533D02*
X143338095Y-76783390D01*
X143338095Y-76783390D02*
X142766667Y-77354819D01*
X142766667Y-77354819D02*
X143385714Y-77354819D01*
X123338095Y-57154819D02*
X123338095Y-57964342D01*
X123338095Y-57964342D02*
X123385714Y-58059580D01*
X123385714Y-58059580D02*
X123433333Y-58107200D01*
X123433333Y-58107200D02*
X123528571Y-58154819D01*
X123528571Y-58154819D02*
X123719047Y-58154819D01*
X123719047Y-58154819D02*
X123814285Y-58107200D01*
X123814285Y-58107200D02*
X123861904Y-58059580D01*
X123861904Y-58059580D02*
X123909523Y-57964342D01*
X123909523Y-57964342D02*
X123909523Y-57154819D01*
X124338095Y-57250057D02*
X124385714Y-57202438D01*
X124385714Y-57202438D02*
X124480952Y-57154819D01*
X124480952Y-57154819D02*
X124719047Y-57154819D01*
X124719047Y-57154819D02*
X124814285Y-57202438D01*
X124814285Y-57202438D02*
X124861904Y-57250057D01*
X124861904Y-57250057D02*
X124909523Y-57345295D01*
X124909523Y-57345295D02*
X124909523Y-57440533D01*
X124909523Y-57440533D02*
X124861904Y-57583390D01*
X124861904Y-57583390D02*
X124290476Y-58154819D01*
X124290476Y-58154819D02*
X124909523Y-58154819D01*
X101766666Y-62754819D02*
X101766666Y-63469104D01*
X101766666Y-63469104D02*
X101719047Y-63611961D01*
X101719047Y-63611961D02*
X101623809Y-63707200D01*
X101623809Y-63707200D02*
X101480952Y-63754819D01*
X101480952Y-63754819D02*
X101385714Y-63754819D01*
X102766666Y-63754819D02*
X102195238Y-63754819D01*
X102480952Y-63754819D02*
X102480952Y-62754819D01*
X102480952Y-62754819D02*
X102385714Y-62897676D01*
X102385714Y-62897676D02*
X102290476Y-62992914D01*
X102290476Y-62992914D02*
X102195238Y-63040533D01*
X108832200Y-78508332D02*
X108879819Y-78365475D01*
X108879819Y-78365475D02*
X108879819Y-78127380D01*
X108879819Y-78127380D02*
X108832200Y-78032142D01*
X108832200Y-78032142D02*
X108784580Y-77984523D01*
X108784580Y-77984523D02*
X108689342Y-77936904D01*
X108689342Y-77936904D02*
X108594104Y-77936904D01*
X108594104Y-77936904D02*
X108498866Y-77984523D01*
X108498866Y-77984523D02*
X108451247Y-78032142D01*
X108451247Y-78032142D02*
X108403628Y-78127380D01*
X108403628Y-78127380D02*
X108356009Y-78317856D01*
X108356009Y-78317856D02*
X108308390Y-78413094D01*
X108308390Y-78413094D02*
X108260771Y-78460713D01*
X108260771Y-78460713D02*
X108165533Y-78508332D01*
X108165533Y-78508332D02*
X108070295Y-78508332D01*
X108070295Y-78508332D02*
X107975057Y-78460713D01*
X107975057Y-78460713D02*
X107927438Y-78413094D01*
X107927438Y-78413094D02*
X107879819Y-78317856D01*
X107879819Y-78317856D02*
X107879819Y-78079761D01*
X107879819Y-78079761D02*
X107927438Y-77936904D01*
X107879819Y-77603570D02*
X108879819Y-77365475D01*
X108879819Y-77365475D02*
X108165533Y-77174999D01*
X108165533Y-77174999D02*
X108879819Y-76984523D01*
X108879819Y-76984523D02*
X107879819Y-76746428D01*
X108879819Y-75841666D02*
X108879819Y-76413094D01*
X108879819Y-76127380D02*
X107879819Y-76127380D01*
X107879819Y-76127380D02*
X108022676Y-76222618D01*
X108022676Y-76222618D02*
X108117914Y-76317856D01*
X108117914Y-76317856D02*
X108165533Y-76413094D01*
X130561905Y-55454819D02*
X130561905Y-54454819D01*
X130561905Y-54454819D02*
X130800000Y-54454819D01*
X130800000Y-54454819D02*
X130942857Y-54502438D01*
X130942857Y-54502438D02*
X131038095Y-54597676D01*
X131038095Y-54597676D02*
X131085714Y-54692914D01*
X131085714Y-54692914D02*
X131133333Y-54883390D01*
X131133333Y-54883390D02*
X131133333Y-55026247D01*
X131133333Y-55026247D02*
X131085714Y-55216723D01*
X131085714Y-55216723D02*
X131038095Y-55311961D01*
X131038095Y-55311961D02*
X130942857Y-55407200D01*
X130942857Y-55407200D02*
X130800000Y-55454819D01*
X130800000Y-55454819D02*
X130561905Y-55454819D01*
X132085714Y-55454819D02*
X131514286Y-55454819D01*
X131800000Y-55454819D02*
X131800000Y-54454819D01*
X131800000Y-54454819D02*
X131704762Y-54597676D01*
X131704762Y-54597676D02*
X131609524Y-54692914D01*
X131609524Y-54692914D02*
X131514286Y-54740533D01*
X114766666Y-84304819D02*
X114766666Y-85019104D01*
X114766666Y-85019104D02*
X114719047Y-85161961D01*
X114719047Y-85161961D02*
X114623809Y-85257200D01*
X114623809Y-85257200D02*
X114480952Y-85304819D01*
X114480952Y-85304819D02*
X114385714Y-85304819D01*
X115671428Y-84304819D02*
X115480952Y-84304819D01*
X115480952Y-84304819D02*
X115385714Y-84352438D01*
X115385714Y-84352438D02*
X115338095Y-84400057D01*
X115338095Y-84400057D02*
X115242857Y-84542914D01*
X115242857Y-84542914D02*
X115195238Y-84733390D01*
X115195238Y-84733390D02*
X115195238Y-85114342D01*
X115195238Y-85114342D02*
X115242857Y-85209580D01*
X115242857Y-85209580D02*
X115290476Y-85257200D01*
X115290476Y-85257200D02*
X115385714Y-85304819D01*
X115385714Y-85304819D02*
X115576190Y-85304819D01*
X115576190Y-85304819D02*
X115671428Y-85257200D01*
X115671428Y-85257200D02*
X115719047Y-85209580D01*
X115719047Y-85209580D02*
X115766666Y-85114342D01*
X115766666Y-85114342D02*
X115766666Y-84876247D01*
X115766666Y-84876247D02*
X115719047Y-84781009D01*
X115719047Y-84781009D02*
X115671428Y-84733390D01*
X115671428Y-84733390D02*
X115576190Y-84685771D01*
X115576190Y-84685771D02*
X115385714Y-84685771D01*
X115385714Y-84685771D02*
X115290476Y-84733390D01*
X115290476Y-84733390D02*
X115242857Y-84781009D01*
X115242857Y-84781009D02*
X115195238Y-84876247D01*
X110238095Y-72654819D02*
X110238095Y-73464342D01*
X110238095Y-73464342D02*
X110285714Y-73559580D01*
X110285714Y-73559580D02*
X110333333Y-73607200D01*
X110333333Y-73607200D02*
X110428571Y-73654819D01*
X110428571Y-73654819D02*
X110619047Y-73654819D01*
X110619047Y-73654819D02*
X110714285Y-73607200D01*
X110714285Y-73607200D02*
X110761904Y-73559580D01*
X110761904Y-73559580D02*
X110809523Y-73464342D01*
X110809523Y-73464342D02*
X110809523Y-72654819D01*
X111809523Y-73654819D02*
X111238095Y-73654819D01*
X111523809Y-73654819D02*
X111523809Y-72654819D01*
X111523809Y-72654819D02*
X111428571Y-72797676D01*
X111428571Y-72797676D02*
X111333333Y-72892914D01*
X111333333Y-72892914D02*
X111238095Y-72940533D01*
D14*
%TO.C,J5*%
X145915000Y-62190000D02*
X145915000Y-63240000D01*
X145915000Y-65360000D02*
X144925000Y-65360000D01*
X145915000Y-66410000D02*
X145915000Y-65360000D01*
X148415000Y-62190000D02*
X145915000Y-62190000D01*
X148415000Y-66410000D02*
X145915000Y-66410000D01*
X150385000Y-65240000D02*
X150385000Y-63360000D01*
%TO.C,R4*%
X133232379Y-83620000D02*
X133567621Y-83620000D01*
X133232379Y-84380000D02*
X133567621Y-84380000D01*
%TO.C,JP4*%
X138400000Y-59800000D02*
X141200000Y-59800000D01*
X138400000Y-61800000D02*
X138400000Y-59800000D01*
X141200000Y-59800000D02*
X141200000Y-61800000D01*
X141200000Y-61800000D02*
X138400000Y-61800000D01*
%TO.C,JP1*%
X109850000Y-59700000D02*
X112650000Y-59700000D01*
X109850000Y-61700000D02*
X109850000Y-59700000D01*
X112650000Y-59700000D02*
X112650000Y-61700000D01*
X112650000Y-61700000D02*
X109850000Y-61700000D01*
%TO.C,C1*%
X140208767Y-74690000D02*
X139916233Y-74690000D01*
X140208767Y-75710000D02*
X139916233Y-75710000D01*
%TO.C,JP3*%
X109650000Y-65900000D02*
X112450000Y-65900000D01*
X109650000Y-67900000D02*
X109650000Y-65900000D01*
X112450000Y-65900000D02*
X112450000Y-67900000D01*
X112450000Y-67900000D02*
X109650000Y-67900000D01*
%TO.C,SW2*%
X104550000Y-57900000D02*
X104550000Y-62300000D01*
X106350000Y-57900000D02*
X106250000Y-57900000D01*
X106350000Y-62300000D02*
X106250000Y-62300000D01*
X108050000Y-62300000D02*
X108050000Y-57900000D01*
%TO.C,JP2*%
X138650000Y-71500000D02*
X141450000Y-71500000D01*
X138650000Y-73500000D02*
X138650000Y-71500000D01*
X141450000Y-71500000D02*
X141450000Y-73500000D01*
X141450000Y-73500000D02*
X138650000Y-73500000D01*
%TO.C,C4*%
X139908767Y-63280000D02*
X139616233Y-63280000D01*
X139908767Y-64300000D02*
X139616233Y-64300000D01*
%TO.C,R3*%
X130727379Y-83620000D02*
X131062621Y-83620000D01*
X130727379Y-84380000D02*
X131062621Y-84380000D01*
%TO.C,C3*%
X139908767Y-65790000D02*
X139616233Y-65790000D01*
X139908767Y-66810000D02*
X139616233Y-66810000D01*
%TO.C,J7*%
X107790000Y-49885000D02*
X107790000Y-52385000D01*
X107790000Y-52385000D02*
X108840000Y-52385000D01*
X112840000Y-47915000D02*
X108960000Y-47915000D01*
X112960000Y-52385000D02*
X112960000Y-53375000D01*
X114010000Y-49885000D02*
X114010000Y-52385000D01*
X114010000Y-52385000D02*
X112960000Y-52385000D01*
%TO.C,R2*%
X126129879Y-83520000D02*
X126465121Y-83520000D01*
X126129879Y-84280000D02*
X126465121Y-84280000D01*
%TO.C,R1*%
X123729879Y-83520000D02*
X124065121Y-83520000D01*
X123729879Y-84280000D02*
X124065121Y-84280000D01*
%TO.C,J4*%
X145940000Y-68390000D02*
X145940000Y-69440000D01*
X145940000Y-72560000D02*
X144950000Y-72560000D01*
X145940000Y-73610000D02*
X145940000Y-72560000D01*
X148440000Y-68390000D02*
X145940000Y-68390000D01*
X148440000Y-73610000D02*
X145940000Y-73610000D01*
X150410000Y-72440000D02*
X150410000Y-69560000D01*
%TO.C,C2*%
X140171267Y-76490000D02*
X139878733Y-76490000D01*
X140171267Y-77510000D02*
X139878733Y-77510000D01*
%TO.C,U2*%
X116150000Y-78350000D02*
X116150000Y-78200000D01*
X116300000Y-60050000D02*
X115300000Y-60050000D01*
X116300000Y-78350000D02*
X116150000Y-78350000D01*
X134300000Y-60050000D02*
X134450000Y-60050000D01*
X134300000Y-78350000D02*
X134450000Y-78350000D01*
X134450000Y-60050000D02*
X134450000Y-60200000D01*
X134450000Y-78350000D02*
X134450000Y-78200000D01*
%TO.C,J1*%
X98250000Y-64680000D02*
X98250000Y-74080000D01*
X100150000Y-64680000D02*
X98250000Y-64680000D01*
X100150000Y-74080000D02*
X98250000Y-74080000D01*
X104050000Y-64680000D02*
X102050000Y-64680000D01*
X104050000Y-74080000D02*
X102050000Y-74080000D01*
%TO.C,SW1*%
X109275000Y-75125000D02*
X109275000Y-79525000D01*
X111075000Y-75125000D02*
X110975000Y-75125000D01*
X111075000Y-79525000D02*
X110975000Y-79525000D01*
X112775000Y-79525000D02*
X112775000Y-75125000D01*
%TO.C,D1*%
X125399956Y-53750000D02*
X129850000Y-53750000D01*
X125400000Y-54550000D02*
X125400000Y-53750000D01*
X125950000Y-56750000D02*
X129850000Y-56750000D01*
%TO.C,J6*%
X107590000Y-86740000D02*
X108640000Y-86740000D01*
X107590000Y-89240000D02*
X107590000Y-86740000D01*
X108640000Y-86740000D02*
X108640000Y-85750000D01*
X108760000Y-91210000D02*
X112640000Y-91210000D01*
X113810000Y-86740000D02*
X112760000Y-86740000D01*
X113810000Y-89240000D02*
X113810000Y-86740000D01*
%TO.C,U1*%
X110962500Y-69290000D02*
X110162500Y-69290000D01*
X110962500Y-69290000D02*
X111762500Y-69290000D01*
X110962500Y-72410000D02*
X110162500Y-72410000D01*
X110962500Y-72410000D02*
X111762500Y-72410000D01*
X109662500Y-69340000D02*
X109422500Y-69010000D01*
X109902500Y-69010000D01*
X109662500Y-69340000D01*
G36*
X109662500Y-69340000D02*
G01*
X109422500Y-69010000D01*
X109902500Y-69010000D01*
X109662500Y-69340000D01*
G37*
%TD*%
M02*
