%TF.GenerationSoftware,KiCad,Pcbnew,8.0.3*%
%TF.CreationDate,2024-10-14T16:47:46+01:00*%
%TF.ProjectId,nPM1300 kicad design,6e504d31-3330-4302-906b-696361642064,rev?*%
%TF.SameCoordinates,Original*%
%TF.FileFunction,Copper,L1,Top*%
%TF.FilePolarity,Positive*%
%FSLAX46Y46*%
G04 Gerber Fmt 4.6, Leading zero omitted, Abs format (unit mm)*
G04 Created by KiCad (PCBNEW 8.0.3) date 2024-10-14 16:47:46*
%MOMM*%
%LPD*%
G01*
G04 APERTURE LIST*
G04 Aperture macros list*
%AMRoundRect*
0 Rectangle with rounded corners*
0 $1 Rounding radius*
0 $2 $3 $4 $5 $6 $7 $8 $9 X,Y pos of 4 corners*
0 Add a 4 corners polygon primitive as box body*
4,1,4,$2,$3,$4,$5,$6,$7,$8,$9,$2,$3,0*
0 Add four circle primitives for the rounded corners*
1,1,$1+$1,$2,$3*
1,1,$1+$1,$4,$5*
1,1,$1+$1,$6,$7*
1,1,$1+$1,$8,$9*
0 Add four rect primitives between the rounded corners*
20,1,$1+$1,$2,$3,$4,$5,0*
20,1,$1+$1,$4,$5,$6,$7,0*
20,1,$1+$1,$6,$7,$8,$9,0*
20,1,$1+$1,$8,$9,$2,$3,0*%
G04 Aperture macros list end*
%TA.AperFunction,EtchedComponent*%
%ADD10C,0.000000*%
%TD*%
%TA.AperFunction,ComponentPad*%
%ADD11C,3.800000*%
%TD*%
%TA.AperFunction,SMDPad,CuDef*%
%ADD12RoundRect,0.150000X0.625000X-0.150000X0.625000X0.150000X-0.625000X0.150000X-0.625000X-0.150000X0*%
%TD*%
%TA.AperFunction,SMDPad,CuDef*%
%ADD13RoundRect,0.250000X0.650000X-0.350000X0.650000X0.350000X-0.650000X0.350000X-0.650000X-0.350000X0*%
%TD*%
%TA.AperFunction,SMDPad,CuDef*%
%ADD14RoundRect,0.160000X-0.197500X-0.160000X0.197500X-0.160000X0.197500X0.160000X-0.197500X0.160000X0*%
%TD*%
%TA.AperFunction,SMDPad,CuDef*%
%ADD15R,1.000000X1.500000*%
%TD*%
%TA.AperFunction,SMDPad,CuDef*%
%ADD16RoundRect,0.237500X0.300000X0.237500X-0.300000X0.237500X-0.300000X-0.237500X0.300000X-0.237500X0*%
%TD*%
%TA.AperFunction,SMDPad,CuDef*%
%ADD17R,0.650000X1.050000*%
%TD*%
%TA.AperFunction,SMDPad,CuDef*%
%ADD18RoundRect,0.150000X0.150000X0.625000X-0.150000X0.625000X-0.150000X-0.625000X0.150000X-0.625000X0*%
%TD*%
%TA.AperFunction,SMDPad,CuDef*%
%ADD19RoundRect,0.250000X0.350000X0.650000X-0.350000X0.650000X-0.350000X-0.650000X0.350000X-0.650000X0*%
%TD*%
%TA.AperFunction,SMDPad,CuDef*%
%ADD20O,2.000000X1.000000*%
%TD*%
%TA.AperFunction,SMDPad,CuDef*%
%ADD21O,1.000000X2.000000*%
%TD*%
%TA.AperFunction,SMDPad,CuDef*%
%ADD22R,1.450000X0.600000*%
%TD*%
%TA.AperFunction,SMDPad,CuDef*%
%ADD23R,1.450000X0.300000*%
%TD*%
%TA.AperFunction,ComponentPad*%
%ADD24O,2.100000X1.000000*%
%TD*%
%TA.AperFunction,ComponentPad*%
%ADD25O,1.600000X1.000000*%
%TD*%
%TA.AperFunction,SMDPad,CuDef*%
%ADD26R,1.500000X1.100000*%
%TD*%
%TA.AperFunction,SMDPad,CuDef*%
%ADD27RoundRect,0.150000X-0.150000X-0.625000X0.150000X-0.625000X0.150000X0.625000X-0.150000X0.625000X0*%
%TD*%
%TA.AperFunction,SMDPad,CuDef*%
%ADD28RoundRect,0.250000X-0.350000X-0.650000X0.350000X-0.650000X0.350000X0.650000X-0.350000X0.650000X0*%
%TD*%
%TA.AperFunction,SMDPad,CuDef*%
%ADD29RoundRect,0.150000X-0.512500X-0.150000X0.512500X-0.150000X0.512500X0.150000X-0.512500X0.150000X0*%
%TD*%
%TA.AperFunction,ComponentPad*%
%ADD30R,0.850000X0.850000*%
%TD*%
%TA.AperFunction,ComponentPad*%
%ADD31O,0.850000X0.850000*%
%TD*%
%TA.AperFunction,ViaPad*%
%ADD32C,0.600000*%
%TD*%
%TA.AperFunction,Conductor*%
%ADD33C,0.200000*%
%TD*%
G04 APERTURE END LIST*
D10*
%TA.AperFunction,EtchedComponent*%
%TO.C,JP4*%
G36*
X140050000Y-61100000D02*
G01*
X139550000Y-61100000D01*
X139550000Y-60500000D01*
X140050000Y-60500000D01*
X140050000Y-61100000D01*
G37*
%TD.AperFunction*%
%TA.AperFunction,EtchedComponent*%
%TO.C,JP1*%
G36*
X111500000Y-61000000D02*
G01*
X111000000Y-61000000D01*
X111000000Y-60400000D01*
X111500000Y-60400000D01*
X111500000Y-61000000D01*
G37*
%TD.AperFunction*%
%TA.AperFunction,EtchedComponent*%
%TO.C,JP3*%
G36*
X111300000Y-67200000D02*
G01*
X110800000Y-67200000D01*
X110800000Y-66600000D01*
X111300000Y-66600000D01*
X111300000Y-67200000D01*
G37*
%TD.AperFunction*%
%TA.AperFunction,EtchedComponent*%
%TO.C,JP2*%
G36*
X140300000Y-72800000D02*
G01*
X139800000Y-72800000D01*
X139800000Y-72200000D01*
X140300000Y-72200000D01*
X140300000Y-72800000D01*
G37*
%TD.AperFunction*%
%TD*%
D11*
%TO.P,H1,1*%
%TO.N,N/C*%
X101700000Y-90100000D03*
%TD*%
D12*
%TO.P,J5,1,Pin_1*%
%TO.N,/VBAT*%
X145700000Y-64800000D03*
%TO.P,J5,2,Pin_2*%
%TO.N,GND*%
X145700000Y-63800000D03*
D13*
%TO.P,J5,MP,MountPin*%
X149575000Y-66100000D03*
X149575000Y-62500000D03*
%TD*%
D14*
%TO.P,R4,1*%
%TO.N,Net-(U2-VSET1)*%
X132802500Y-84000000D03*
%TO.P,R4,2*%
%TO.N,GND*%
X133997500Y-84000000D03*
%TD*%
D15*
%TO.P,JP4,1,A*%
%TO.N,/LS1_OUT*%
X139150000Y-60800000D03*
%TO.P,JP4,2,B*%
%TO.N,Net-(JP4-B)*%
X140450000Y-60800000D03*
%TD*%
%TO.P,JP1,1,A*%
%TO.N,Net-(JP1-A)*%
X110600000Y-60700000D03*
%TO.P,JP1,2,B*%
%TO.N,/GPIO0*%
X111900000Y-60700000D03*
%TD*%
D16*
%TO.P,C1,1*%
%TO.N,Net-(JP2-B)*%
X140925000Y-75200000D03*
%TO.P,C1,2*%
%TO.N,GND*%
X139200000Y-75200000D03*
%TD*%
D15*
%TO.P,JP3,1,A*%
%TO.N,+3V3*%
X110400000Y-66900000D03*
%TO.P,JP3,2,B*%
%TO.N,VDDIO*%
X111700000Y-66900000D03*
%TD*%
D17*
%TO.P,SW2,1,1*%
%TO.N,GND*%
X105225000Y-62175000D03*
X105225000Y-58025000D03*
%TO.P,SW2,2,2*%
%TO.N,Net-(JP1-A)*%
X107375000Y-62175000D03*
X107375000Y-58050000D03*
%TD*%
D15*
%TO.P,JP2,1,A*%
%TO.N,/LS2_OUT*%
X139400000Y-72500000D03*
%TO.P,JP2,2,B*%
%TO.N,Net-(JP2-B)*%
X140700000Y-72500000D03*
%TD*%
D11*
%TO.P,H3,1*%
%TO.N,N/C*%
X148400000Y-90800000D03*
%TD*%
D16*
%TO.P,C4,1*%
%TO.N,Net-(JP4-B)*%
X140625000Y-63790000D03*
%TO.P,C4,2*%
%TO.N,GND*%
X138900000Y-63790000D03*
%TD*%
D11*
%TO.P,H2,1*%
%TO.N,N/C*%
X102100000Y-48900000D03*
%TD*%
D14*
%TO.P,R3,1*%
%TO.N,Net-(U2-VSET2)*%
X130297500Y-84000000D03*
%TO.P,R3,2*%
%TO.N,GND*%
X131492500Y-84000000D03*
%TD*%
D16*
%TO.P,C3,1*%
%TO.N,Net-(JP4-B)*%
X140625000Y-66300000D03*
%TO.P,C3,2*%
%TO.N,GND*%
X138900000Y-66300000D03*
%TD*%
D18*
%TO.P,J7,1,Pin_1*%
%TO.N,/SCL*%
X112400000Y-52600000D03*
%TO.P,J7,2,Pin_2*%
%TO.N,/SDA*%
X111400000Y-52600000D03*
%TO.P,J7,3,Pin_3*%
%TO.N,VDDIO*%
X110400000Y-52600000D03*
%TO.P,J7,4,Pin_4*%
%TO.N,GND*%
X109400000Y-52600000D03*
D19*
%TO.P,J7,MP,MountPin*%
X113700000Y-48725000D03*
X108100000Y-48725000D03*
%TD*%
D11*
%TO.P,H4,1*%
%TO.N,N/C*%
X148200000Y-49500000D03*
%TD*%
D14*
%TO.P,R2,1*%
%TO.N,VDDIO*%
X125700000Y-83900000D03*
%TO.P,R2,2*%
%TO.N,/SDA*%
X126895000Y-83900000D03*
%TD*%
%TO.P,R1,1*%
%TO.N,VDDIO*%
X123300000Y-83900000D03*
%TO.P,R1,2*%
%TO.N,/SCL*%
X124495000Y-83900000D03*
%TD*%
D12*
%TO.P,J4,1,Pin_1*%
%TO.N,GND*%
X145725000Y-72000000D03*
%TO.P,J4,2,Pin_2*%
%TO.N,/VBAT*%
X145725000Y-71000000D03*
%TO.P,J4,3,Pin_3*%
%TO.N,/NTC*%
X145725000Y-70000000D03*
D13*
%TO.P,J4,MP,MountPin*%
%TO.N,GND*%
X149600000Y-73300000D03*
X149600000Y-68700000D03*
%TD*%
D16*
%TO.P,C2,1*%
%TO.N,Net-(JP2-B)*%
X140887500Y-77000000D03*
%TO.P,C2,2*%
%TO.N,GND*%
X139162500Y-77000000D03*
%TD*%
D20*
%TO.P,U2,1,VOUT1*%
%TO.N,+1V8*%
X115800000Y-62200000D03*
%TO.P,U2,2,VOUT2*%
%TO.N,+3V3*%
X115800000Y-64200000D03*
%TO.P,U2,3,GND*%
%TO.N,GND*%
X115800000Y-66200000D03*
%TO.P,U2,4,GPIO0*%
%TO.N,/GPIO0*%
X115800000Y-68200000D03*
%TO.P,U2,5,GPIO1*%
%TO.N,/GPIO1*%
X115800000Y-70200000D03*
%TO.P,U2,6,GPIO2*%
%TO.N,/GPIO2*%
X115800000Y-72200000D03*
%TO.P,U2,7,GPIO3*%
%TO.N,/GPIO3*%
X115800000Y-74200000D03*
%TO.P,U2,8,GND*%
%TO.N,GND*%
X115800000Y-76200000D03*
D21*
%TO.P,U2,9,GPIO4*%
%TO.N,/GPIO4*%
X118300000Y-78700000D03*
%TO.P,U2,10,VDDIO*%
%TO.N,VDDIO*%
X120300000Y-78700000D03*
%TO.P,U2,11,SDA*%
%TO.N,/SDA*%
X122300000Y-78700000D03*
%TO.P,U2,12,SCL*%
%TO.N,/SCL*%
X124300000Y-78700000D03*
%TO.P,U2,13,SHPHLD*%
%TO.N,/SHPHLD*%
X126300000Y-78700000D03*
%TO.P,U2,14,VSET2*%
%TO.N,Net-(U2-VSET2)*%
X128300000Y-78700000D03*
%TO.P,U2,15,VSET1*%
%TO.N,Net-(U2-VSET1)*%
X130300000Y-78700000D03*
%TO.P,U2,16,GND*%
%TO.N,GND*%
X132300000Y-78700000D03*
D20*
%TO.P,U2,17,GND*%
X134800000Y-76200000D03*
%TO.P,U2,18,NTC*%
%TO.N,/NTC*%
X134800000Y-74200000D03*
%TO.P,U2,19,VBAT*%
%TO.N,/VBAT*%
X134800000Y-72200000D03*
%TO.P,U2,20,VSYS*%
%TO.N,VSYS*%
X134800000Y-70200000D03*
%TO.P,U2,21,VBUS_IN*%
%TO.N,Net-(U1-VBUS)*%
X134800000Y-68200000D03*
%TO.P,U2,22,VBUS_OUT*%
%TO.N,/VBUS_OUT*%
X134800000Y-66200000D03*
%TO.P,U2,23,CC1*%
%TO.N,unconnected-(U2-CC1-Pad23)*%
X134800000Y-64200000D03*
%TO.P,U2,24,CC2*%
%TO.N,unconnected-(U2-CC2-Pad24)*%
X134800000Y-62200000D03*
D21*
%TO.P,U2,25,GND*%
%TO.N,GND*%
X132300000Y-59700000D03*
%TO.P,U2,26,LED0*%
%TO.N,Net-(D1-BK)*%
X130300000Y-59700000D03*
%TO.P,U2,27,LED1*%
%TO.N,Net-(D1-GK)*%
X128300000Y-59700000D03*
%TO.P,U2,28,LED2*%
%TO.N,Net-(D1-RK)*%
X126300000Y-59700000D03*
%TO.P,U2,29,LS1_IN*%
%TO.N,/LS1_IN*%
X124300000Y-59700000D03*
%TO.P,U2,30,LS1_OUT*%
%TO.N,/LS1_OUT*%
X122300000Y-59700000D03*
%TO.P,U2,31,LS2_IN*%
%TO.N,/LS2_IN*%
X120300000Y-59700000D03*
%TO.P,U2,32,LS2_OUT*%
%TO.N,/LS2_OUT*%
X118300000Y-59700000D03*
%TD*%
D22*
%TO.P,J1,A1,GND*%
%TO.N,GND*%
X106195000Y-66130000D03*
%TO.P,J1,A4,VBUS*%
%TO.N,Net-(U1-VBUS)*%
X106195000Y-66930000D03*
D23*
%TO.P,J1,A5,CC1*%
%TO.N,Net-(J1-CC1)*%
X106195000Y-68130000D03*
%TO.P,J1,A6,D+*%
%TO.N,unconnected-(J1-D+-PadA6)*%
X106195000Y-69130000D03*
%TO.P,J1,A7,D-*%
%TO.N,unconnected-(J1-D--PadA7)*%
X106195000Y-69630000D03*
%TO.P,J1,A8*%
%TO.N,N/C*%
X106195000Y-70630000D03*
D22*
%TO.P,J1,A9,VBUS*%
%TO.N,Net-(U1-VBUS)*%
X106195000Y-71830000D03*
%TO.P,J1,A12,GND*%
%TO.N,GND*%
X106195000Y-72630000D03*
%TO.P,J1,B1,GND*%
X106195000Y-72630000D03*
%TO.P,J1,B4,VBUS*%
%TO.N,Net-(U1-VBUS)*%
X106195000Y-71830000D03*
D23*
%TO.P,J1,B5,CC2*%
%TO.N,Net-(J1-CC2)*%
X106195000Y-71130000D03*
%TO.P,J1,B6,D+*%
%TO.N,unconnected-(J1-D+-PadB6)*%
X106195000Y-70130000D03*
%TO.P,J1,B7,D-*%
%TO.N,unconnected-(J1-D--PadB7)*%
X106195000Y-68630000D03*
%TO.P,J1,B8*%
%TO.N,N/C*%
X106195000Y-67630000D03*
D22*
%TO.P,J1,B9,VBUS*%
%TO.N,Net-(U1-VBUS)*%
X106195000Y-66930000D03*
%TO.P,J1,B12,GND*%
%TO.N,GND*%
X106195000Y-66130000D03*
D24*
%TO.P,J1,S1,SHIELD*%
X105280000Y-65060000D03*
D25*
X101100000Y-65060000D03*
D24*
X105280000Y-73700000D03*
D25*
X101100000Y-73700000D03*
%TD*%
D17*
%TO.P,SW1,1,1*%
%TO.N,GND*%
X109950000Y-79400000D03*
X109950000Y-75250000D03*
%TO.P,SW1,2,2*%
%TO.N,/SHPHLD*%
X112100000Y-79400000D03*
X112100000Y-75275000D03*
%TD*%
D26*
%TO.P,D1,1,RK*%
%TO.N,Net-(D1-RK)*%
X126400000Y-54500000D03*
%TO.P,D1,2,GK*%
%TO.N,Net-(D1-GK)*%
X129400000Y-54500000D03*
%TO.P,D1,3,BK*%
%TO.N,Net-(D1-BK)*%
X129400000Y-56000000D03*
%TO.P,D1,4,A*%
%TO.N,VSYS*%
X126400000Y-56000000D03*
%TD*%
D27*
%TO.P,J6,1,Pin_1*%
%TO.N,/SCL*%
X109200000Y-86525000D03*
%TO.P,J6,2,Pin_2*%
%TO.N,/SDA*%
X110200000Y-86525000D03*
%TO.P,J6,3,Pin_3*%
%TO.N,VDDIO*%
X111200000Y-86525000D03*
%TO.P,J6,4,Pin_4*%
%TO.N,GND*%
X112200000Y-86525000D03*
D28*
%TO.P,J6,MP,MountPin*%
X107900000Y-90400000D03*
X113500000Y-90400000D03*
%TD*%
D29*
%TO.P,U1,1,I/O1*%
%TO.N,Net-(J1-CC1)*%
X109825000Y-69900000D03*
%TO.P,U1,2,GND*%
%TO.N,GND*%
X109825000Y-70850000D03*
%TO.P,U1,3,I/O2*%
%TO.N,Net-(J1-CC2)*%
X109825000Y-71800000D03*
%TO.P,U1,4,I/O2*%
X112100000Y-71800000D03*
%TO.P,U1,5,VBUS*%
%TO.N,Net-(U1-VBUS)*%
X112100000Y-70850000D03*
%TO.P,U1,6,I/O1*%
%TO.N,Net-(J1-CC1)*%
X112100000Y-69900000D03*
%TD*%
D30*
%TO.P,J2,1,Pin_1*%
%TO.N,/GPIO0*%
X120800000Y-87600000D03*
%TO.P,J2,2,Pin_2*%
%TO.N,/GPIO1*%
X121800000Y-87600000D03*
%TO.P,J2,3,Pin_3*%
%TO.N,/GPIO2*%
X122800000Y-87600000D03*
D31*
%TO.P,J2,4,Pin_4*%
%TO.N,/GPIO3*%
X123800000Y-87600000D03*
%TO.P,J2,5,Pin_5*%
%TO.N,/GPIO4*%
X124800000Y-87600000D03*
%TO.P,J2,6,Pin_6*%
%TO.N,VDDIO*%
X125800000Y-87600000D03*
%TO.P,J2,7,Pin_7*%
%TO.N,/SCL*%
X126800000Y-87600000D03*
%TO.P,J2,8,Pin_8*%
%TO.N,/SDA*%
X127800000Y-87600000D03*
%TO.P,J2,9,Pin_9*%
%TO.N,/SHPHLD*%
X128800000Y-87600000D03*
%TO.P,J2,10,Pin_10*%
%TO.N,/NTC*%
X129800000Y-87600000D03*
%TD*%
D30*
%TO.P,J3,1,Pin_1*%
%TO.N,/LS2_OUT*%
X120900000Y-51300000D03*
D31*
%TO.P,J3,2,Pin_2*%
%TO.N,/LS2_IN*%
X121900000Y-51300000D03*
%TO.P,J3,3,Pin_3*%
%TO.N,/LS1_OUT*%
X122900000Y-51300000D03*
%TO.P,J3,4,Pin_4*%
%TO.N,/LS1_IN*%
X123900000Y-51300000D03*
%TO.P,J3,5,Pin_5*%
%TO.N,+1V8*%
X124900000Y-51300000D03*
%TO.P,J3,6,Pin_6*%
%TO.N,+3V3*%
X125900000Y-51300000D03*
%TO.P,J3,7,Pin_7*%
%TO.N,/VBUS_OUT*%
X126900000Y-51300000D03*
%TO.P,J3,8,Pin_8*%
%TO.N,VSYS*%
X127900000Y-51300000D03*
%TO.P,J3,9,Pin_9*%
%TO.N,/VBAT*%
X128900000Y-51300000D03*
%TO.P,J3,10,Pin_10*%
%TO.N,GND*%
X129900000Y-51300000D03*
%TD*%
D32*
%TO.N,VDDIO*%
X119300000Y-83500000D03*
X123640514Y-84130559D03*
X116400000Y-83500000D03*
X125100000Y-84600000D03*
%TO.N,/SDA*%
X116500000Y-82200000D03*
X125095000Y-82900000D03*
X113600000Y-65200000D03*
X113625401Y-63600000D03*
X123895000Y-82900000D03*
X120900000Y-82200000D03*
%TO.N,/SHPHLD*%
X116247016Y-80641049D03*
X125100000Y-80600000D03*
%TO.N,/GPIO0*%
X118700000Y-69400000D03*
X120400000Y-86100000D03*
X112500000Y-63600000D03*
X114500000Y-68200000D03*
%TO.N,/GPIO2*%
X121100000Y-76700000D03*
X122400000Y-85700000D03*
%TO.N,/GPIO1*%
X119300000Y-70500000D03*
X121500000Y-86200000D03*
%TO.N,/SCL*%
X114400000Y-64800000D03*
X125100000Y-85500000D03*
X114400000Y-63400000D03*
X116500000Y-81399997D03*
X126600000Y-85500000D03*
X123000000Y-81400000D03*
%TO.N,+3V3*%
X124586863Y-53391962D03*
X120080222Y-53369222D03*
%TO.N,/LS1_OUT*%
X136800000Y-60700000D03*
X123300000Y-60400000D03*
%TO.N,/VBUS_OUT*%
X128600000Y-53400000D03*
X127300000Y-53400000D03*
%TO.N,GND*%
X134000000Y-84500000D03*
X106200000Y-74200000D03*
X139000000Y-77600000D03*
X139200000Y-74500000D03*
X105800000Y-64300000D03*
X106800000Y-65600000D03*
X149100000Y-63400000D03*
X104700000Y-62300000D03*
X112800000Y-48600000D03*
X139000000Y-66900000D03*
X149700000Y-65100000D03*
X131500000Y-84400000D03*
X109900000Y-78500000D03*
X132600000Y-80000000D03*
X138000000Y-63700000D03*
X146800000Y-72000000D03*
X132800000Y-58500000D03*
X109300000Y-48600000D03*
X105300000Y-58900000D03*
X149600000Y-72300000D03*
X146700000Y-63900000D03*
X149400000Y-69800000D03*
X107000000Y-73100000D03*
X108800000Y-70800000D03*
X110000000Y-76000000D03*
X108800000Y-90100000D03*
X130700000Y-51300000D03*
X136100000Y-76200000D03*
X101300000Y-74400000D03*
X109400000Y-51400000D03*
X114500000Y-66100000D03*
X112400000Y-87600000D03*
X101700000Y-64300000D03*
X114500000Y-76100000D03*
X112300000Y-90200000D03*
%TO.N,+1V8*%
X120300000Y-52600000D03*
X124700000Y-52600000D03*
%TO.N,Net-(U1-VBUS)*%
X113600000Y-75200000D03*
X131200000Y-69300000D03*
%TD*%
D33*
%TO.N,Net-(D1-GK)*%
X129400000Y-54500000D02*
X128450000Y-54500000D01*
X128450000Y-54500000D02*
X128300000Y-54650000D01*
X128300000Y-54650000D02*
X128300000Y-59700000D01*
%TO.N,Net-(D1-RK)*%
X125100000Y-54700000D02*
X125100000Y-58500000D01*
X125100000Y-58500000D02*
X126300000Y-59700000D01*
X125300000Y-54500000D02*
X125100000Y-54700000D01*
X126400000Y-54500000D02*
X125300000Y-54500000D01*
%TO.N,Net-(D1-BK)*%
X129400000Y-58800000D02*
X130300000Y-59700000D01*
X129400000Y-56000000D02*
X129400000Y-58800000D01*
%TO.N,VSYS*%
X134800000Y-70200000D02*
X130950000Y-70200000D01*
X130600000Y-61850000D02*
X129750000Y-61000000D01*
X126400000Y-56000000D02*
X127350000Y-56000000D01*
X127500000Y-57100000D02*
X126400000Y-56000000D01*
X127500000Y-60531371D02*
X127500000Y-57100000D01*
X127350000Y-56000000D02*
X127900000Y-55450000D01*
X130600000Y-69850000D02*
X130600000Y-61850000D01*
X127968629Y-61000000D02*
X127500000Y-60531371D01*
X129750000Y-61000000D02*
X127968629Y-61000000D01*
X127900000Y-55450000D02*
X127900000Y-51300000D01*
X130950000Y-70200000D02*
X130600000Y-69850000D01*
%TO.N,VDDIO*%
X120300000Y-83500000D02*
X122900000Y-83500000D01*
X111200000Y-86109448D02*
X111200000Y-86525000D01*
X112800000Y-66900000D02*
X111700000Y-66900000D01*
X125100000Y-84600000D02*
X125600000Y-84600000D01*
X125700000Y-84500000D02*
X125700000Y-87500000D01*
X120300000Y-78700000D02*
X120300000Y-76651471D01*
X107100000Y-57000000D02*
X106400000Y-57700000D01*
X108440686Y-67950000D02*
X111600000Y-67950000D01*
X107900000Y-64200000D02*
X107900000Y-67409314D01*
X117181371Y-72450000D02*
X116631371Y-73000000D01*
X113500000Y-67600000D02*
X112800000Y-66900000D01*
X121284314Y-72450000D02*
X117181371Y-72450000D01*
X111600000Y-67950000D02*
X111700000Y-67850000D01*
X115549997Y-82199997D02*
X110031375Y-82199997D01*
X123409955Y-83900000D02*
X123640514Y-84130559D01*
X110400000Y-52600000D02*
X110400000Y-56800000D01*
X123300000Y-83900000D02*
X123409955Y-83900000D01*
X125700000Y-83900000D02*
X125700000Y-84500000D01*
X113500000Y-72900000D02*
X113500000Y-67600000D01*
X120300000Y-83500000D02*
X119300000Y-83500000D01*
X125700000Y-87500000D02*
X125800000Y-87600000D01*
X120300000Y-78700000D02*
X120300000Y-83500000D01*
X110400000Y-56800000D02*
X110200000Y-57000000D01*
X111700000Y-67850000D02*
X111700000Y-66900000D01*
X116631371Y-73000000D02*
X114968629Y-73000000D01*
X114518629Y-72550000D02*
X113850000Y-72550000D01*
X113850000Y-72550000D02*
X113500000Y-72900000D01*
X121500000Y-72665686D02*
X121284314Y-72450000D01*
X106400000Y-62700000D02*
X107900000Y-64200000D01*
X107900000Y-67409314D02*
X108440686Y-67950000D01*
X110000000Y-82231372D02*
X110000000Y-84909448D01*
X122900000Y-83500000D02*
X123300000Y-83900000D01*
X125600000Y-84600000D02*
X125700000Y-84500000D01*
X110031375Y-82199997D02*
X110000000Y-82231372D01*
X116400000Y-83500000D02*
X116400000Y-83050000D01*
X116400000Y-83050000D02*
X115549997Y-82199997D01*
X106400000Y-57700000D02*
X106400000Y-62700000D01*
X120300000Y-76651471D02*
X121500000Y-75451471D01*
X121500000Y-75451471D02*
X121500000Y-72665686D01*
X114968629Y-73000000D02*
X114518629Y-72550000D01*
X110200000Y-57000000D02*
X107100000Y-57000000D01*
X110000000Y-84909448D02*
X111200000Y-86109448D01*
%TO.N,/GPIO4*%
X124800000Y-86048529D02*
X124800000Y-87600000D01*
X118300000Y-78700000D02*
X118300000Y-83900000D01*
X123451471Y-84700000D02*
X124800000Y-86048529D01*
X118300000Y-83900000D02*
X119100000Y-84700000D01*
X119100000Y-84700000D02*
X123451471Y-84700000D01*
%TO.N,/SDA*%
X112000000Y-56800000D02*
X113400000Y-56800000D01*
X126600000Y-82900000D02*
X126895000Y-83195000D01*
X113900000Y-57300000D02*
X113900000Y-63051471D01*
X114968629Y-71400000D02*
X116631371Y-71400000D01*
X113900000Y-70700000D02*
X114784315Y-71584315D01*
X113900000Y-65500000D02*
X113900000Y-70700000D01*
X128400000Y-85405000D02*
X128400000Y-86974695D01*
X109865689Y-81799997D02*
X109600000Y-82065686D01*
X114784315Y-71584315D02*
X114968629Y-71400000D01*
X116051471Y-81799997D02*
X109865689Y-81799997D01*
X111400000Y-56200000D02*
X112000000Y-56800000D01*
X116451474Y-82200000D02*
X116051471Y-81799997D01*
X111400000Y-52600000D02*
X111400000Y-56200000D01*
X113600000Y-65200000D02*
X113900000Y-65500000D01*
X116881371Y-71650000D02*
X121750000Y-71650000D01*
X122300000Y-82600000D02*
X122600000Y-82900000D01*
X110200000Y-86525000D02*
X110200000Y-86109448D01*
X110200000Y-86109448D02*
X109600000Y-85509448D01*
X122300000Y-82200000D02*
X122300000Y-82600000D01*
X128075000Y-87325000D02*
X127800000Y-87600000D01*
X122600000Y-82900000D02*
X123895000Y-82900000D01*
X113625401Y-63326070D02*
X113625401Y-63600000D01*
X109600000Y-82065686D02*
X109600000Y-85509448D01*
X116631371Y-71400000D02*
X116881371Y-71650000D01*
X128400000Y-86974695D02*
X128075000Y-87299695D01*
X126895000Y-83900000D02*
X128400000Y-85405000D01*
X120900000Y-82200000D02*
X122300000Y-82200000D01*
X113900000Y-63051471D02*
X113625401Y-63326070D01*
X113400000Y-56800000D02*
X113900000Y-57300000D01*
X116500000Y-82200000D02*
X116451474Y-82200000D01*
X128075000Y-87299695D02*
X128075000Y-87325000D01*
X126895000Y-83195000D02*
X126895000Y-83900000D01*
X122300000Y-72200000D02*
X122300000Y-78700000D01*
X121750000Y-71650000D02*
X122300000Y-72200000D01*
X125095000Y-82900000D02*
X126600000Y-82900000D01*
X122300000Y-78700000D02*
X122300000Y-82200000D01*
%TO.N,/NTC*%
X146800000Y-78200000D02*
X147400000Y-77600000D01*
X134800000Y-74200000D02*
X137700000Y-74200000D01*
X139800000Y-87600000D02*
X140300000Y-87100000D01*
X137700000Y-74200000D02*
X138000000Y-74500000D01*
X140000000Y-78200000D02*
X146800000Y-78200000D01*
X138000000Y-77500000D02*
X138700000Y-78200000D01*
X146700000Y-70000000D02*
X145725000Y-70000000D01*
X138700000Y-78200000D02*
X140000000Y-78200000D01*
X140300000Y-78500000D02*
X140000000Y-78200000D01*
X147400000Y-70700000D02*
X146700000Y-70000000D01*
X147400000Y-77600000D02*
X147400000Y-70700000D01*
X138000000Y-74500000D02*
X138000000Y-77500000D01*
X129800000Y-87600000D02*
X139800000Y-87600000D01*
X140300000Y-87100000D02*
X140300000Y-78500000D01*
%TO.N,/GPIO3*%
X124400000Y-86214215D02*
X123285785Y-85100000D01*
X123800000Y-87600000D02*
X124075000Y-87325000D01*
X117900000Y-84065686D02*
X117900000Y-79931371D01*
X117500000Y-75900000D02*
X115800000Y-74200000D01*
X124400000Y-86974695D02*
X124400000Y-86214215D01*
X124075000Y-87325000D02*
X124075000Y-87299695D01*
X117900000Y-79931371D02*
X117500000Y-79531371D01*
X118700000Y-84865685D02*
X118634314Y-84800000D01*
X123285785Y-85100000D02*
X118934314Y-85100000D01*
X118634314Y-84800000D02*
X117900000Y-84065686D01*
X124075000Y-87299695D02*
X124400000Y-86974695D01*
X117500000Y-79531371D02*
X117500000Y-75900000D01*
X118934314Y-85100000D02*
X118700000Y-84865685D01*
%TO.N,/SHPHLD*%
X126300000Y-80100000D02*
X126300000Y-78700000D01*
X127552500Y-83286814D02*
X127552500Y-83991814D01*
X126300000Y-78700000D02*
X126300000Y-82350000D01*
X127552500Y-83991814D02*
X128800000Y-85239314D01*
X125100000Y-80600000D02*
X125800000Y-80600000D01*
X112100000Y-79400000D02*
X112100000Y-80500000D01*
X125800000Y-80600000D02*
X126300000Y-80100000D01*
X112100000Y-80500000D02*
X112500000Y-80900000D01*
X112500000Y-80900000D02*
X115988065Y-80900000D01*
X128800000Y-85239314D02*
X128800000Y-87600000D01*
X115988065Y-80900000D02*
X116247016Y-80641049D01*
X126765686Y-82500000D02*
X127552500Y-83286814D01*
X126300000Y-82350000D02*
X126450000Y-82500000D01*
X112100000Y-75275000D02*
X112100000Y-79400000D01*
X126450000Y-82500000D02*
X126765686Y-82500000D01*
%TO.N,/GPIO0*%
X112500000Y-63600000D02*
X111900000Y-63000000D01*
X118700000Y-69400000D02*
X118700000Y-68900000D01*
X118000000Y-68200000D02*
X115800000Y-68200000D01*
X118700000Y-68900000D02*
X118000000Y-68200000D01*
X115800000Y-68200000D02*
X114500000Y-68200000D01*
X120800000Y-87600000D02*
X120800000Y-86500000D01*
X120800000Y-86500000D02*
X120400000Y-86100000D01*
X111900000Y-63000000D02*
X111900000Y-60700000D01*
%TO.N,/GPIO2*%
X116715686Y-72050000D02*
X116615686Y-71950000D01*
X116615686Y-71950000D02*
X116050000Y-71950000D01*
X121900000Y-72500000D02*
X121450000Y-72050000D01*
X122800000Y-87600000D02*
X122800000Y-86100000D01*
X121100000Y-76700000D02*
X121900000Y-75900000D01*
X121900000Y-75900000D02*
X121900000Y-72500000D01*
X121450000Y-72050000D02*
X116715686Y-72050000D01*
X116050000Y-71950000D02*
X115800000Y-72200000D01*
X122800000Y-86100000D02*
X122400000Y-85700000D01*
%TO.N,/GPIO1*%
X119000000Y-70200000D02*
X115800000Y-70200000D01*
X119300000Y-70500000D02*
X119000000Y-70200000D01*
X121800000Y-87600000D02*
X121800000Y-86500000D01*
X121800000Y-86500000D02*
X121500000Y-86200000D01*
%TO.N,/SCL*%
X122700000Y-72034314D02*
X121915686Y-71250000D01*
X112400000Y-56000000D02*
X112800000Y-56400000D01*
X119900000Y-71000000D02*
X119900000Y-65750000D01*
X109700003Y-81399997D02*
X109200000Y-81900000D01*
X116500000Y-81399997D02*
X109700003Y-81399997D01*
X126800000Y-87600000D02*
X126700000Y-87600000D01*
X114400000Y-57200000D02*
X114400000Y-63400000D01*
X124400000Y-83995000D02*
X124495000Y-83900000D01*
X112400000Y-52600000D02*
X112400000Y-56000000D01*
X109200000Y-81900000D02*
X109200000Y-86525000D01*
X112800000Y-56400000D02*
X113600000Y-56400000D01*
X124300000Y-78700000D02*
X122700000Y-77100000D01*
X121915686Y-71250000D02*
X120150000Y-71250000D01*
X126600000Y-87500000D02*
X126600000Y-85500000D01*
X124400000Y-84800000D02*
X124400000Y-83995000D01*
X124495000Y-78895000D02*
X124300000Y-78700000D01*
X123000000Y-81400000D02*
X124495000Y-81400000D01*
X122700000Y-77100000D02*
X122700000Y-72034314D01*
X119150000Y-65000000D02*
X114600000Y-65000000D01*
X119900000Y-65750000D02*
X119150000Y-65000000D01*
X126700000Y-87600000D02*
X126600000Y-87500000D01*
X113600000Y-56400000D02*
X114400000Y-57200000D01*
X125100000Y-85500000D02*
X124400000Y-84800000D01*
X120150000Y-71250000D02*
X119900000Y-71000000D01*
X124495000Y-83900000D02*
X124495000Y-81400000D01*
X114600000Y-65000000D02*
X114400000Y-64800000D01*
X124495000Y-81400000D02*
X124495000Y-78895000D01*
%TO.N,/LS2_OUT*%
X138300000Y-71400000D02*
X136165686Y-71400000D01*
X133500000Y-72531371D02*
X133500000Y-70900000D01*
X130200000Y-62015686D02*
X129584314Y-61400000D01*
X136165686Y-71400000D02*
X136000000Y-71565686D01*
X133500000Y-70900000D02*
X133200000Y-70600000D01*
X136100000Y-71868629D02*
X136100000Y-72531371D01*
X118300000Y-58500000D02*
X118400000Y-58400000D01*
X133968629Y-73000000D02*
X133500000Y-72531371D01*
X130200000Y-70015686D02*
X130200000Y-62015686D01*
X136000000Y-71565686D02*
X136000000Y-71768629D01*
X135631371Y-73000000D02*
X133968629Y-73000000D01*
X136000000Y-71768629D02*
X136100000Y-71868629D01*
X120900000Y-58100000D02*
X120900000Y-51300000D01*
X136100000Y-72531371D02*
X135631371Y-73000000D01*
X139400000Y-72500000D02*
X138300000Y-71400000D01*
X118300000Y-59700000D02*
X118300000Y-58500000D01*
X130784314Y-70600000D02*
X130200000Y-70015686D01*
X120000000Y-61400000D02*
X118300000Y-59700000D01*
X133200000Y-70600000D02*
X130784314Y-70600000D01*
X120600000Y-58400000D02*
X120900000Y-58100000D01*
X129584314Y-61400000D02*
X120000000Y-61400000D01*
X118400000Y-58400000D02*
X120600000Y-58400000D01*
%TO.N,+3V3*%
X117100000Y-62900000D02*
X117100000Y-61868629D01*
X116200000Y-53650000D02*
X116750000Y-53100000D01*
X116750000Y-53100000D02*
X119811000Y-53100000D01*
X116200000Y-60968629D02*
X116200000Y-53650000D01*
X117100000Y-61868629D02*
X116200000Y-60968629D01*
X119811000Y-53100000D02*
X120080222Y-53369222D01*
X110400000Y-66900000D02*
X110400000Y-64700000D01*
X115800000Y-64200000D02*
X117100000Y-62900000D01*
X110900000Y-64200000D02*
X115800000Y-64200000D01*
X110400000Y-64700000D02*
X110900000Y-64200000D01*
X124586863Y-53391962D02*
X125608038Y-53391962D01*
X125900000Y-53100000D02*
X125900000Y-51300000D01*
X125608038Y-53391962D02*
X125900000Y-53100000D01*
%TO.N,/VBAT*%
X136200000Y-61768629D02*
X136200000Y-57475000D01*
X136100000Y-70900000D02*
X136100000Y-61868629D01*
X145725000Y-71000000D02*
X144950001Y-71000000D01*
X144950001Y-71000000D02*
X144650000Y-70699999D01*
X129400000Y-52900000D02*
X128900000Y-52400000D01*
X134800000Y-72200000D02*
X135800000Y-71200000D01*
X136100000Y-61868629D02*
X136200000Y-61768629D01*
X135800000Y-71200000D02*
X136000000Y-71000000D01*
X131500000Y-56875000D02*
X131500000Y-53434314D01*
X144650000Y-65850000D02*
X145700000Y-64800000D01*
X135800000Y-71200000D02*
X136100000Y-70900000D01*
X130965686Y-52900000D02*
X129400000Y-52900000D01*
X144650000Y-70699999D02*
X144650000Y-65850000D01*
X136200000Y-57475000D02*
X135975000Y-57250000D01*
X128900000Y-52400000D02*
X128900000Y-51300000D01*
X131500000Y-53434314D02*
X130965686Y-52900000D01*
X131875000Y-57250000D02*
X131500000Y-56875000D01*
X136000000Y-71000000D02*
X145725000Y-71000000D01*
X135975000Y-57250000D02*
X131875000Y-57250000D01*
%TO.N,/LS1_OUT*%
X121700000Y-58965686D02*
X121700000Y-52525305D01*
X122300000Y-59700000D02*
X121632843Y-59032843D01*
X121632843Y-59032843D02*
X121700000Y-58965686D01*
X139150000Y-60800000D02*
X136900000Y-60800000D01*
X121700000Y-52525305D02*
X122900000Y-51325305D01*
X122900000Y-51325305D02*
X122900000Y-51300000D01*
X123000000Y-60400000D02*
X122300000Y-59700000D01*
X136900000Y-60800000D02*
X136800000Y-60700000D01*
X123300000Y-60400000D02*
X123000000Y-60400000D01*
%TO.N,/LS1_IN*%
X123900000Y-51850000D02*
X123900000Y-51300000D01*
X123725000Y-52025000D02*
X123900000Y-51850000D01*
X122100000Y-52700000D02*
X122775000Y-52025000D01*
X124300000Y-59700000D02*
X124300000Y-58850000D01*
X122600000Y-58400000D02*
X122100000Y-57900000D01*
X123850000Y-58400000D02*
X122600000Y-58400000D01*
X122100000Y-57900000D02*
X122100000Y-52700000D01*
X122775000Y-52025000D02*
X123725000Y-52025000D01*
X124300000Y-58850000D02*
X123850000Y-58400000D01*
%TO.N,/VBUS_OUT*%
X130800000Y-53300000D02*
X128700000Y-53300000D01*
X131000000Y-60631371D02*
X131100000Y-60531371D01*
X128700000Y-53300000D02*
X128600000Y-53400000D01*
X131350000Y-66200000D02*
X131000000Y-65850000D01*
X127300000Y-53400000D02*
X126900000Y-53000000D01*
X131000000Y-65850000D02*
X131000000Y-60631371D01*
X131100000Y-60531371D02*
X131100000Y-53600000D01*
X134800000Y-66200000D02*
X131350000Y-66200000D01*
X131100000Y-53600000D02*
X130800000Y-53300000D01*
X126900000Y-53000000D02*
X126900000Y-51300000D01*
%TO.N,/LS2_IN*%
X120400000Y-59700000D02*
X121300000Y-58800000D01*
X121900000Y-51750000D02*
X121900000Y-51300000D01*
X121300000Y-52350000D02*
X121900000Y-51750000D01*
X121300000Y-58800000D02*
X121300000Y-52350000D01*
X120300000Y-59700000D02*
X120400000Y-59700000D01*
%TO.N,GND*%
X112200000Y-87400000D02*
X112400000Y-87600000D01*
X101100000Y-64900000D02*
X101700000Y-64300000D01*
X112925000Y-48725000D02*
X112800000Y-48600000D01*
X109950000Y-75250000D02*
X109950000Y-75950000D01*
X138900000Y-66800000D02*
X139000000Y-66900000D01*
X107900000Y-90400000D02*
X108500000Y-90400000D01*
X149600000Y-73300000D02*
X149600000Y-72300000D01*
X129900000Y-51300000D02*
X130700000Y-51300000D01*
X109825000Y-70850000D02*
X108850000Y-70850000D01*
X108850000Y-70850000D02*
X108800000Y-70800000D01*
X114600000Y-66200000D02*
X114500000Y-66100000D01*
X109950000Y-78550000D02*
X109900000Y-78500000D01*
X112200000Y-86525000D02*
X112200000Y-87400000D01*
X101100000Y-74200000D02*
X101300000Y-74400000D01*
X145700000Y-63800000D02*
X146600000Y-63800000D01*
X149575000Y-62500000D02*
X149575000Y-62925000D01*
X138900000Y-66300000D02*
X138900000Y-66800000D01*
X109950000Y-79400000D02*
X109950000Y-78550000D01*
X108100000Y-48725000D02*
X109175000Y-48725000D01*
X112500000Y-90400000D02*
X112300000Y-90200000D01*
X109400000Y-52600000D02*
X109400000Y-51400000D01*
X105700000Y-73700000D02*
X106200000Y-74200000D01*
X149575000Y-62925000D02*
X149100000Y-63400000D01*
X131492500Y-84000000D02*
X131492500Y-84392500D01*
X113700000Y-48725000D02*
X112925000Y-48725000D01*
X132300000Y-79700000D02*
X132600000Y-80000000D01*
X106270000Y-66130000D02*
X106800000Y-65600000D01*
X133997500Y-84000000D02*
X133997500Y-84497500D01*
X131492500Y-84392500D02*
X131500000Y-84400000D01*
X139200000Y-75200000D02*
X139200000Y-74500000D01*
X104825000Y-62175000D02*
X104700000Y-62300000D01*
X105225000Y-62175000D02*
X104825000Y-62175000D01*
X105225000Y-58025000D02*
X105225000Y-58825000D01*
X113500000Y-90400000D02*
X112500000Y-90400000D01*
X139162500Y-77437500D02*
X139000000Y-77600000D01*
X106195000Y-66130000D02*
X106270000Y-66130000D01*
X132300000Y-59000000D02*
X132800000Y-58500000D01*
X105280000Y-73700000D02*
X105700000Y-73700000D01*
X138900000Y-63790000D02*
X138090000Y-63790000D01*
X115800000Y-76200000D02*
X114600000Y-76200000D01*
X146600000Y-63800000D02*
X146700000Y-63900000D01*
X108500000Y-90400000D02*
X108800000Y-90100000D01*
X109950000Y-75950000D02*
X110000000Y-76000000D01*
X134800000Y-76200000D02*
X136100000Y-76200000D01*
X149575000Y-65225000D02*
X149700000Y-65100000D01*
X115800000Y-66200000D02*
X114600000Y-66200000D01*
X132300000Y-59700000D02*
X132300000Y-59000000D01*
X149575000Y-66100000D02*
X149575000Y-65225000D01*
X101100000Y-65060000D02*
X101100000Y-64900000D01*
X105280000Y-64820000D02*
X105800000Y-64300000D01*
X132300000Y-78700000D02*
X132300000Y-79700000D01*
X149600000Y-68700000D02*
X149600000Y-69600000D01*
X145725000Y-72000000D02*
X146800000Y-72000000D01*
X101100000Y-73700000D02*
X101100000Y-74200000D01*
X114600000Y-76200000D02*
X114500000Y-76100000D01*
X105280000Y-65060000D02*
X105280000Y-64820000D01*
X133997500Y-84497500D02*
X134000000Y-84500000D01*
X109175000Y-48725000D02*
X109300000Y-48600000D01*
X105225000Y-58825000D02*
X105300000Y-58900000D01*
X106530000Y-72630000D02*
X107000000Y-73100000D01*
X139162500Y-77000000D02*
X139162500Y-77437500D01*
X138090000Y-63790000D02*
X138000000Y-63700000D01*
X149600000Y-69600000D02*
X149400000Y-69800000D01*
X106195000Y-72630000D02*
X106530000Y-72630000D01*
%TO.N,+1V8*%
X116300000Y-52700000D02*
X120200000Y-52700000D01*
X120200000Y-52700000D02*
X120300000Y-52600000D01*
X115800000Y-62200000D02*
X115800000Y-53200000D01*
X124700000Y-52600000D02*
X124700000Y-51500000D01*
X124700000Y-51500000D02*
X124900000Y-51300000D01*
X115800000Y-53200000D02*
X116300000Y-52700000D01*
%TO.N,Net-(JP2-B)*%
X140887500Y-77000000D02*
X140887500Y-75237500D01*
X140700000Y-74975000D02*
X140925000Y-75200000D01*
X140887500Y-75237500D02*
X140925000Y-75200000D01*
X140700000Y-72500000D02*
X140700000Y-74975000D01*
%TO.N,Net-(JP4-B)*%
X140450000Y-63615000D02*
X140625000Y-63790000D01*
X140450000Y-60800000D02*
X140450000Y-63615000D01*
X140625000Y-66300000D02*
X140625000Y-63790000D01*
%TO.N,Net-(JP1-A)*%
X110125000Y-62175000D02*
X110600000Y-61700000D01*
X110600000Y-61700000D02*
X110600000Y-60700000D01*
X107375000Y-62175000D02*
X110125000Y-62175000D01*
X107375000Y-58050000D02*
X107375000Y-62175000D01*
%TO.N,Net-(U2-VSET2)*%
X129900000Y-80300000D02*
X129900000Y-82765686D01*
X128300000Y-78700000D02*
X129900000Y-80300000D01*
X129900000Y-82765686D02*
X130500000Y-83365686D01*
X130500000Y-83797500D02*
X130297500Y-84000000D01*
X130500000Y-83365686D02*
X130500000Y-83797500D01*
%TO.N,Net-(U2-VSET1)*%
X132500000Y-82900000D02*
X132802500Y-83202500D01*
X132802500Y-83202500D02*
X132802500Y-84000000D01*
X130600000Y-82900000D02*
X132500000Y-82900000D01*
X130300000Y-82600000D02*
X130600000Y-82900000D01*
X130300000Y-78700000D02*
X130300000Y-82600000D01*
%TO.N,Net-(U1-VBUS)*%
X107600000Y-72410000D02*
X107600000Y-73300000D01*
X134800000Y-68200000D02*
X132300000Y-68200000D01*
X107020000Y-71830000D02*
X107600000Y-72410000D01*
X132300000Y-68200000D02*
X131200000Y-69300000D01*
X105470000Y-66930000D02*
X106195000Y-66930000D01*
X113062500Y-73537500D02*
X113062500Y-72800000D01*
X113062500Y-74662500D02*
X113062500Y-73537500D01*
X113062500Y-71150001D02*
X112762499Y-70850000D01*
X113062500Y-72800000D02*
X113062500Y-71150001D01*
X105270000Y-71830000D02*
X104900000Y-71460000D01*
X108000000Y-73700000D02*
X112900000Y-73700000D01*
X104900000Y-71460000D02*
X104900000Y-67500000D01*
X112762499Y-70850000D02*
X112100000Y-70850000D01*
X107600000Y-73300000D02*
X108000000Y-73700000D01*
X104900000Y-67500000D02*
X105470000Y-66930000D01*
X106195000Y-71830000D02*
X105270000Y-71830000D01*
X113600000Y-75200000D02*
X113062500Y-74662500D01*
X106195000Y-71830000D02*
X107020000Y-71830000D01*
X112900000Y-73700000D02*
X113062500Y-73537500D01*
%TO.N,Net-(J1-CC2)*%
X109825000Y-71800000D02*
X109475000Y-71450000D01*
X109475000Y-71450000D02*
X108601471Y-71450000D01*
X108281471Y-71130000D02*
X106195000Y-71130000D01*
X109825000Y-71800000D02*
X112100000Y-71800000D01*
X108601471Y-71450000D02*
X108281471Y-71130000D01*
%TO.N,Net-(J1-CC1)*%
X107170000Y-68130000D02*
X106195000Y-68130000D01*
X107600000Y-69800000D02*
X107500000Y-69700000D01*
X109825000Y-69900000D02*
X109725000Y-69800000D01*
X109825000Y-69900000D02*
X112100000Y-69900000D01*
X107500000Y-69700000D02*
X107500000Y-68460000D01*
X109725000Y-69800000D02*
X107600000Y-69800000D01*
X107500000Y-68460000D02*
X107170000Y-68130000D01*
%TD*%
M02*
