%TF.GenerationSoftware,KiCad,Pcbnew,8.0.3*%
%TF.CreationDate,2024-10-14T16:47:46+01:00*%
%TF.ProjectId,nPM1300 kicad design,6e504d31-3330-4302-906b-696361642064,rev?*%
%TF.SameCoordinates,Original*%
%TF.FileFunction,Legend,Bot*%
%TF.FilePolarity,Positive*%
%FSLAX46Y46*%
G04 Gerber Fmt 4.6, Leading zero omitted, Abs format (unit mm)*
G04 Created by KiCad (PCBNEW 8.0.3) date 2024-10-14 16:47:46*
%MOMM*%
%LPD*%
G01*
G04 APERTURE LIST*
%ADD10C,0.150000*%
%ADD11C,0.120000*%
G04 APERTURE END LIST*
D10*
X118694819Y-87266666D02*
X119409104Y-87266666D01*
X119409104Y-87266666D02*
X119551961Y-87219047D01*
X119551961Y-87219047D02*
X119647200Y-87123809D01*
X119647200Y-87123809D02*
X119694819Y-86980952D01*
X119694819Y-86980952D02*
X119694819Y-86885714D01*
X118790057Y-87695238D02*
X118742438Y-87742857D01*
X118742438Y-87742857D02*
X118694819Y-87838095D01*
X118694819Y-87838095D02*
X118694819Y-88076190D01*
X118694819Y-88076190D02*
X118742438Y-88171428D01*
X118742438Y-88171428D02*
X118790057Y-88219047D01*
X118790057Y-88219047D02*
X118885295Y-88266666D01*
X118885295Y-88266666D02*
X118980533Y-88266666D01*
X118980533Y-88266666D02*
X119123390Y-88219047D01*
X119123390Y-88219047D02*
X119694819Y-87647619D01*
X119694819Y-87647619D02*
X119694819Y-88266666D01*
X118794819Y-50966666D02*
X119509104Y-50966666D01*
X119509104Y-50966666D02*
X119651961Y-50919047D01*
X119651961Y-50919047D02*
X119747200Y-50823809D01*
X119747200Y-50823809D02*
X119794819Y-50680952D01*
X119794819Y-50680952D02*
X119794819Y-50585714D01*
X118794819Y-51347619D02*
X118794819Y-51966666D01*
X118794819Y-51966666D02*
X119175771Y-51633333D01*
X119175771Y-51633333D02*
X119175771Y-51776190D01*
X119175771Y-51776190D02*
X119223390Y-51871428D01*
X119223390Y-51871428D02*
X119271009Y-51919047D01*
X119271009Y-51919047D02*
X119366247Y-51966666D01*
X119366247Y-51966666D02*
X119604342Y-51966666D01*
X119604342Y-51966666D02*
X119699580Y-51919047D01*
X119699580Y-51919047D02*
X119747200Y-51871428D01*
X119747200Y-51871428D02*
X119794819Y-51776190D01*
X119794819Y-51776190D02*
X119794819Y-51490476D01*
X119794819Y-51490476D02*
X119747200Y-51395238D01*
X119747200Y-51395238D02*
X119699580Y-51347619D01*
D11*
%TO.C,J2*%
X120115000Y-86905000D02*
X120800000Y-86905000D01*
X120115000Y-87600000D02*
X120115000Y-86905000D01*
X121485000Y-86991724D02*
X121485000Y-86905000D01*
X121485000Y-88295000D02*
X121485000Y-88208276D01*
X130360000Y-86905000D02*
X121485000Y-86905000D01*
X130360000Y-87205507D02*
X130360000Y-86905000D01*
X130360000Y-88295000D02*
X121485000Y-88295000D01*
X130360000Y-88295000D02*
X130360000Y-87994493D01*
%TO.C,J3*%
X120215000Y-50605000D02*
X120900000Y-50605000D01*
X120215000Y-51300000D02*
X120215000Y-50605000D01*
X121585000Y-50691724D02*
X121585000Y-50605000D01*
X121585000Y-51995000D02*
X121585000Y-51908276D01*
X130460000Y-50605000D02*
X121585000Y-50605000D01*
X130460000Y-50905507D02*
X130460000Y-50605000D01*
X130460000Y-51995000D02*
X121585000Y-51995000D01*
X130460000Y-51995000D02*
X130460000Y-51694493D01*
%TD*%
M02*
