%TF.GenerationSoftware,KiCad,Pcbnew,8.0.3*%
%TF.CreationDate,2024-10-14T16:47:46+01:00*%
%TF.ProjectId,nPM1300 kicad design,6e504d31-3330-4302-906b-696361642064,rev?*%
%TF.SameCoordinates,Original*%
%TF.FileFunction,Paste,Top*%
%TF.FilePolarity,Positive*%
%FSLAX46Y46*%
G04 Gerber Fmt 4.6, Leading zero omitted, Abs format (unit mm)*
G04 Created by KiCad (PCBNEW 8.0.3) date 2024-10-14 16:47:46*
%MOMM*%
%LPD*%
G01*
G04 APERTURE LIST*
G04 Aperture macros list*
%AMRoundRect*
0 Rectangle with rounded corners*
0 $1 Rounding radius*
0 $2 $3 $4 $5 $6 $7 $8 $9 X,Y pos of 4 corners*
0 Add a 4 corners polygon primitive as box body*
4,1,4,$2,$3,$4,$5,$6,$7,$8,$9,$2,$3,0*
0 Add four circle primitives for the rounded corners*
1,1,$1+$1,$2,$3*
1,1,$1+$1,$4,$5*
1,1,$1+$1,$6,$7*
1,1,$1+$1,$8,$9*
0 Add four rect primitives between the rounded corners*
20,1,$1+$1,$2,$3,$4,$5,0*
20,1,$1+$1,$4,$5,$6,$7,0*
20,1,$1+$1,$6,$7,$8,$9,0*
20,1,$1+$1,$8,$9,$2,$3,0*%
G04 Aperture macros list end*
%ADD10RoundRect,0.150000X0.625000X-0.150000X0.625000X0.150000X-0.625000X0.150000X-0.625000X-0.150000X0*%
%ADD11RoundRect,0.250000X0.650000X-0.350000X0.650000X0.350000X-0.650000X0.350000X-0.650000X-0.350000X0*%
%ADD12RoundRect,0.160000X-0.197500X-0.160000X0.197500X-0.160000X0.197500X0.160000X-0.197500X0.160000X0*%
%ADD13RoundRect,0.237500X0.300000X0.237500X-0.300000X0.237500X-0.300000X-0.237500X0.300000X-0.237500X0*%
%ADD14R,0.650000X1.050000*%
%ADD15RoundRect,0.150000X0.150000X0.625000X-0.150000X0.625000X-0.150000X-0.625000X0.150000X-0.625000X0*%
%ADD16RoundRect,0.250000X0.350000X0.650000X-0.350000X0.650000X-0.350000X-0.650000X0.350000X-0.650000X0*%
%ADD17O,2.000000X1.000000*%
%ADD18O,1.000000X2.000000*%
%ADD19R,1.450000X0.600000*%
%ADD20R,1.450000X0.300000*%
%ADD21R,1.500000X1.100000*%
%ADD22RoundRect,0.150000X-0.150000X-0.625000X0.150000X-0.625000X0.150000X0.625000X-0.150000X0.625000X0*%
%ADD23RoundRect,0.250000X-0.350000X-0.650000X0.350000X-0.650000X0.350000X0.650000X-0.350000X0.650000X0*%
%ADD24RoundRect,0.150000X-0.512500X-0.150000X0.512500X-0.150000X0.512500X0.150000X-0.512500X0.150000X0*%
G04 APERTURE END LIST*
D10*
%TO.C,J5*%
X145700000Y-64800000D03*
X145700000Y-63800000D03*
D11*
X149575000Y-66100000D03*
X149575000Y-62500000D03*
%TD*%
D12*
%TO.C,R4*%
X132802500Y-84000000D03*
X133997500Y-84000000D03*
%TD*%
D13*
%TO.C,C1*%
X140925000Y-75200000D03*
X139200000Y-75200000D03*
%TD*%
D14*
%TO.C,SW2*%
X105225000Y-62175000D03*
X105225000Y-58025000D03*
X107375000Y-62175000D03*
X107375000Y-58050000D03*
%TD*%
D13*
%TO.C,C4*%
X140625000Y-63790000D03*
X138900000Y-63790000D03*
%TD*%
D12*
%TO.C,R3*%
X130297500Y-84000000D03*
X131492500Y-84000000D03*
%TD*%
D13*
%TO.C,C3*%
X140625000Y-66300000D03*
X138900000Y-66300000D03*
%TD*%
D15*
%TO.C,J7*%
X112400000Y-52600000D03*
X111400000Y-52600000D03*
X110400000Y-52600000D03*
X109400000Y-52600000D03*
D16*
X113700000Y-48725000D03*
X108100000Y-48725000D03*
%TD*%
D12*
%TO.C,R2*%
X125700000Y-83900000D03*
X126895000Y-83900000D03*
%TD*%
%TO.C,R1*%
X123300000Y-83900000D03*
X124495000Y-83900000D03*
%TD*%
D10*
%TO.C,J4*%
X145725000Y-72000000D03*
X145725000Y-71000000D03*
X145725000Y-70000000D03*
D11*
X149600000Y-73300000D03*
X149600000Y-68700000D03*
%TD*%
D13*
%TO.C,C2*%
X140887500Y-77000000D03*
X139162500Y-77000000D03*
%TD*%
D17*
%TO.C,U2*%
X115800000Y-62200000D03*
X115800000Y-64200000D03*
X115800000Y-66200000D03*
X115800000Y-68200000D03*
X115800000Y-70200000D03*
X115800000Y-72200000D03*
X115800000Y-74200000D03*
X115800000Y-76200000D03*
D18*
X118300000Y-78700000D03*
X120300000Y-78700000D03*
X122300000Y-78700000D03*
X124300000Y-78700000D03*
X126300000Y-78700000D03*
X128300000Y-78700000D03*
X130300000Y-78700000D03*
X132300000Y-78700000D03*
D17*
X134800000Y-76200000D03*
X134800000Y-74200000D03*
X134800000Y-72200000D03*
X134800000Y-70200000D03*
X134800000Y-68200000D03*
X134800000Y-66200000D03*
X134800000Y-64200000D03*
X134800000Y-62200000D03*
D18*
X132300000Y-59700000D03*
X130300000Y-59700000D03*
X128300000Y-59700000D03*
X126300000Y-59700000D03*
X124300000Y-59700000D03*
X122300000Y-59700000D03*
X120300000Y-59700000D03*
X118300000Y-59700000D03*
%TD*%
D19*
%TO.C,J1*%
X106195000Y-66130000D03*
X106195000Y-66930000D03*
D20*
X106195000Y-68130000D03*
X106195000Y-69130000D03*
X106195000Y-69630000D03*
X106195000Y-70630000D03*
D19*
X106195000Y-71830000D03*
X106195000Y-72630000D03*
X106195000Y-72630000D03*
X106195000Y-71830000D03*
D20*
X106195000Y-71130000D03*
X106195000Y-70130000D03*
X106195000Y-68630000D03*
X106195000Y-67630000D03*
D19*
X106195000Y-66930000D03*
X106195000Y-66130000D03*
%TD*%
D14*
%TO.C,SW1*%
X109950000Y-79400000D03*
X109950000Y-75250000D03*
X112100000Y-79400000D03*
X112100000Y-75275000D03*
%TD*%
D21*
%TO.C,D1*%
X126400000Y-54500000D03*
X129400000Y-54500000D03*
X129400000Y-56000000D03*
X126400000Y-56000000D03*
%TD*%
D22*
%TO.C,J6*%
X109200000Y-86525000D03*
X110200000Y-86525000D03*
X111200000Y-86525000D03*
X112200000Y-86525000D03*
D23*
X107900000Y-90400000D03*
X113500000Y-90400000D03*
%TD*%
D24*
%TO.C,U1*%
X109825000Y-69900000D03*
X109825000Y-70850000D03*
X109825000Y-71800000D03*
X112100000Y-71800000D03*
X112100000Y-70850000D03*
X112100000Y-69900000D03*
%TD*%
M02*
